<svg width="186" height="112" viewBox="0 0 186 112" fill="none" xmlns="http://www.w3.org/2000/svg">
<g clip-path="url(#clip0)">
<path opacity="0.1" d="M1.99976 66.1983C4.93098 77.6219 11.137 87.4969 20.9452 92.2829C41.3367 102.231 87.2967 97.0999 121.603 91.2114C139.354 88.1645 154.944 79.7633 166.277 67.9245L1.99976 66.1983Z" fill="#2C7A7B"/>
<path opacity="0.1" d="M181.907 12.4284H163.083C162.188 12.4284 161.455 11.7607 161.455 10.9448C161.455 10.129 162.186 9.46131 163.083 9.46131H166.34C165.445 9.46131 164.712 8.79364 164.712 7.97778C164.712 7.16193 165.443 6.49589 166.34 6.49589H164.016C163.121 6.49589 162.388 5.82822 162.388 5.01237C162.388 4.19651 163.119 3.52884 164.016 3.52884H173.841C171.66 2.60388 169.118 1.94761 166.177 1.60401C139.388 -1.53403 129.822 0.540627 126.443 2.67553C122.243 5.36399 117.571 7.23118 112.674 8.17809C96.1457 11.2868 65.2343 15.0274 37.2167 6.97954C23.2918 2.98168 12.9429 9.74792 6.73853 21.0347H185.175C184.942 17.7518 184.245 14.7196 182.965 12.0668C182.663 12.3028 182.29 12.4302 181.907 12.4284Z" fill="#2C7A7B"/>
<path opacity="0.1" d="M0.402142 42.3546C-0.320107 48.9985 -0.0738118 55.7121 1.13332 62.2852L166.402 67.7959C170.956 63.0384 174.821 57.6666 177.884 51.837L0.402142 42.3546ZM65.7635 56.5726H62.5066C63.4006 56.5726 64.135 57.2403 64.135 58.0561C64.135 58.872 63.4022 59.538 62.5066 59.538H43.6914C42.7974 59.538 42.0629 58.872 42.0629 58.0561C42.0629 57.2403 42.7957 56.5726 43.6914 56.5726H46.9483C46.0543 56.5726 45.3198 55.9049 45.3198 55.0891C45.3198 54.2732 46.0527 53.6056 46.9483 53.6056H44.6212C43.7272 53.6056 42.9928 52.9395 42.9928 52.1237C42.9928 51.3078 43.7256 50.6401 44.6212 50.6401H63.4446C64.3402 50.6401 65.073 51.3078 65.073 52.1237C65.073 52.9395 64.3418 53.6056 63.4446 53.6056H65.7635C66.6591 53.6056 67.3919 54.2732 67.3919 55.0891C67.3919 55.9049 66.664 56.5726 65.7635 56.5726Z" fill="#2C7A7B"/>
<path opacity="0.1" d="M185.183 21.1373L4.75031 25.1384C2.55189 30.2827 1.09768 36.098 0.426758 42.1265H182.021C183.203 38.599 184.08 34.9765 184.643 31.2989C185.183 27.7554 185.4 24.3291 185.183 21.1373ZM37.0621 34.248H33.8052C34.6992 34.248 35.4337 34.9157 35.4337 35.7316C35.4337 36.5474 34.7009 37.2151 33.8052 37.2151H14.9835C14.0895 37.2151 13.3551 36.5474 13.3551 35.7316C13.3551 34.9157 14.0879 34.248 14.9835 34.248H18.2404C17.3464 34.248 16.612 33.582 16.612 32.7661C16.612 31.9503 17.3448 31.2826 18.2404 31.2826H15.9134C15.0194 31.2826 14.2849 30.6149 14.2849 29.7991C14.2849 28.9832 15.0177 28.3156 15.9134 28.3156H34.7367C35.6323 28.3156 36.3652 28.9832 36.3652 29.7991C36.3652 30.6149 35.634 31.2826 34.7367 31.2826H37.0621C37.9562 31.2826 38.6906 31.9503 38.6906 32.7661C38.6906 33.582 37.9562 34.248 37.0621 34.248Z" fill="#2C7A7B"/>
<path opacity="0.1" d="M81.61 117.091C90.7944 117.091 98.2398 115.859 98.2398 114.34C98.2398 112.821 90.7944 111.59 81.61 111.59C72.4256 111.59 64.9802 112.821 64.9802 114.34C64.9802 115.859 72.4256 117.091 81.61 117.091Z" fill="#2C7A7B"/>
<path d="M94.037 48.9075C93.6853 46.5397 91.5341 41.0143 91.5341 41.0143C91.4966 40.8515 91.4543 40.6886 91.4071 40.5258C89.8812 35.2822 87.7691 34.8262 87.7691 34.8262L80.2033 33.1977C80.2667 33.2374 80.322 33.2888 80.3661 33.3492C80.3262 33.3529 80.2865 33.3589 80.2472 33.3671C79.9008 32.9581 79.6717 32.4629 79.5845 31.9341C79.5698 31.8559 79.5568 31.7712 79.547 31.6914C80.0904 31.1618 80.5142 30.522 80.7901 29.8151C81.0659 29.1082 81.1874 28.3505 81.1464 27.5928C81.1054 26.8351 80.9028 26.0949 80.5522 25.4219C80.2017 24.749 79.7112 24.1587 79.1138 23.6908C79.034 23.6289 78.951 23.5687 78.8712 23.5117C79.2278 23.1323 79.2392 22.6046 78.9722 22.077C78.3761 20.8394 77.0799 20.0561 75.7478 19.6734C74.73 19.3819 73.6308 19.2875 72.6179 19.6067C72.0431 19.789 71.5187 20.0952 70.9797 20.3671C69.9749 20.8687 68.8627 21.2661 68.112 22.0917C67.9361 22.2838 67.7733 22.5297 67.8254 22.7838C67.8644 22.9727 68.0143 23.1192 68.1103 23.287C68.3269 23.6631 68.2732 24.137 68.125 24.5474C67.9768 24.9578 67.7602 25.3388 67.6576 25.759C67.555 26.1791 67.5941 26.6742 67.91 26.9754C68.0615 27.0923 68.2192 27.2011 68.3823 27.3011C68.5552 27.4484 68.707 27.6189 68.8334 27.8076C69.133 28.2092 69.4316 28.6126 69.729 29.0175C70.149 29.5542 70.5243 30.1244 70.851 30.7225C71.0741 31.1622 71.2468 31.6312 71.5448 32.0253C71.6321 32.1403 71.7321 32.2452 71.8428 32.3379L71.7548 32.3037C71.8843 32.4355 72.0394 32.5395 72.2105 32.6092C72.3816 32.6789 72.5651 32.7129 72.7498 32.7092C72.7661 32.7092 72.7808 32.7092 72.7954 32.7092C72.8634 32.7078 72.9284 32.6811 72.9778 32.6343C72.9778 32.6897 72.9778 32.745 72.9778 32.7971C72.9957 33.3785 72.9925 33.9973 72.9518 34.5787L72.8817 34.5429C72.7779 34.4912 72.6614 34.4702 72.5461 34.4823C72.4307 34.4944 72.3212 34.5392 72.2303 34.6112L65.2654 40.2001C65.2654 40.2001 63.751 42.2715 63.9627 45.8476L62.7413 51.2101C62.7413 51.2101 61.2154 55.76 62.3896 59.0088C63.5637 62.2575 64.2444 64.1156 64.2444 64.1156C64.2444 64.1156 64.7134 67.8073 65.4185 68.1086C66.1236 68.4099 66.4281 68.5727 66.4281 68.5727L66.5682 69.4553C66.5682 69.4553 66.6154 69.5416 66.6985 69.6866C67.2114 70.579 69.1118 73.7284 70.2159 73.3913C70.3549 74.2465 70.4149 75.1127 70.3951 75.9789L71.4878 83.3151C71.4878 83.3151 72.2499 85.31 72.2027 86.3554C72.1554 87.4009 73.0918 88.8909 73.0918 88.8909C72.5229 89.9323 72.356 91.1463 72.6228 92.3026C73.069 94.2567 73.6324 103.259 73.6324 103.259L74.4467 105.441L74.4239 107.999C74.357 108.416 74.1831 108.809 73.9191 109.139C73.3914 109.712 73.4305 110.375 72.1587 111.158C70.8869 111.942 70.0808 112.238 70.0808 113.275C70.0792 113.42 70.0662 113.564 70.0417 113.707C69.9244 114.469 69.6965 114.883 72.0349 115.104C74.7821 115.365 76.6142 113.573 76.6142 113.573C76.6142 113.573 77.018 112.841 78.92 112.544C78.92 112.544 79.5714 112.51 79.6056 111.935C79.6187 111.737 79.6154 111.357 79.6056 110.939C79.5747 110.142 79.4982 109.212 79.3972 109.167C79.2702 109.11 79.0487 108.309 78.9722 108.019H79.5014C79.5014 108.019 79.9899 104.327 79.5014 101.937C79.0129 99.5459 79.4542 97.8507 79.4542 97.8507L79.3597 91.5372C79.3597 91.5372 78.7084 90.8402 79.2197 89.6091C79.731 88.378 79.2197 82.2973 79.2197 82.2973C79.2197 82.2973 79.4086 80.1152 79.9476 79.6039C80.4866 79.0925 79.9737 76.4072 79.9476 76.2672L80.9084 79.4899C80.9084 79.4899 81.3302 85.8962 82.2242 87.0557L82.4815 89.9576C82.4815 89.9576 84.3119 92.6283 83.9601 94.0662C83.6084 95.5041 84.3363 100.705 84.3363 100.705V106.022C84.3363 106.022 83.5139 108.157 84.662 108.924L85.1505 108.905C84.9877 109.056 84.8623 109.284 84.6718 109.481C84.4519 109.707 84.3265 110.569 84.2565 111.31C84.1979 111.937 84.1783 112.476 84.1783 112.476C84.1783 112.476 84.6669 113.258 85.587 113.311C86.507 113.365 89.5392 115.671 89.5392 115.671C89.5392 115.671 92.534 115.671 93.3091 115.508L93.3547 115.497C93.6035 115.418 93.8128 115.248 93.9393 115.02C94.0946 114.755 94.1446 114.442 94.0794 114.142C93.9833 113.684 93.6201 113.183 92.8157 112.756C90.8143 111.701 90.5163 110.712 90.5163 110.712L89.2021 108.74H89.3894C89.3894 108.74 89.2738 106.651 90.7036 104.306L90.6108 93.9766C90.6108 93.9766 91.197 90.425 90.189 88.4969C90.189 88.4969 90.1059 86.4548 90.7801 85.8278C91.4543 85.2009 89.8828 78.8645 89.8828 78.8645C89.8828 78.8645 89.5571 75.4627 89.1745 72.3589C90.7589 73.8619 92.4021 68.4506 92.6789 67.4882H92.7196L92.7017 67.4181C92.7131 67.3725 92.7196 67.3497 92.7196 67.3497C92.7196 67.3497 92.3679 66.0991 92.6252 66.3531C92.8825 66.6072 93.5176 65.6561 93.5176 65.6561C93.5176 65.6561 93.4231 60.4793 94.5272 57.8705C95.6313 55.2617 94.037 48.9075 94.037 48.9075ZM89.3145 52.2018L89.3226 52.1872C89.4855 55.348 89.2917 62.0931 89.2917 62.0931C89.2917 62.0931 89.0735 62.9578 88.8406 63.9756L88.6778 57.5676L88.5149 51.5309L89.3145 52.2018ZM69.1037 50.023C69.1037 50.023 69.9016 60.0038 69.1037 61.4433C68.8773 61.8537 68.6868 62.5832 68.5289 63.4154C68.265 62.7233 67.7065 61.0981 67.9068 60.2366C68.1657 59.1228 67.3906 56.1964 67.3906 56.128C67.3906 56.0596 67.3205 54.4996 67.8791 53.3076C68.4377 52.1155 68.0713 51.5993 68.0713 51.5993C68.0713 51.5993 68.5403 49.6452 69.1037 50.023Z" fill="url(#paint0_linear)"/>
<path d="M71.0478 72.5021C70.3525 75.5587 67.5873 70.9372 66.9571 69.8282C66.8757 69.6832 66.8301 69.5986 66.8301 69.5986L67.1297 68.1932L68.7142 67.5418C68.9651 67.6729 69.2029 67.8278 69.4242 68.0043C70.2922 68.6866 71.5836 70.1343 71.0478 72.5021Z" fill="#D38884"/>
<path d="M92.4996 67.5012C92.4996 67.5012 92.4996 67.524 92.4817 67.5696C92.4817 67.5891 92.4687 67.6152 92.4606 67.6429C92.1886 68.5971 90.5764 73.9694 89.0196 72.4778C87.3162 70.8493 88.1435 67.0843 88.1435 67.0843H88.1549L91.7375 66.7179L92.4475 67.4474L92.4996 67.5012Z" fill="#D38884"/>
<path d="M90.4266 93.9391L90.5178 104.198C89.1124 106.527 89.2281 108.595 89.2281 108.595L84.5967 108.778C83.4666 108.017 84.271 105.898 84.271 105.898V100.616C84.271 100.616 83.5561 95.4552 83.9014 94.0254C84.2466 92.5956 82.4504 89.9543 82.4504 89.9543L82.1964 87.0735C81.3203 85.9222 80.905 79.5631 80.905 79.5631L79.9654 76.3518C79.9915 76.4902 80.48 79.1706 79.9654 79.6641C79.4508 80.1575 79.2505 82.3364 79.2505 82.3364C79.2505 82.3364 79.757 88.3747 79.2505 89.5944C78.7441 90.8141 79.3873 91.5078 79.3873 91.5078L79.4801 97.7758C79.4801 97.7758 79.0421 99.458 79.5257 101.831C80.0094 104.203 79.5257 107.869 79.5257 107.869H74.5573L74.5801 105.311L73.7756 103.145C73.7756 103.145 73.2219 94.2045 72.7839 92.2683C72.5217 91.1209 72.6849 89.9173 73.2431 88.8811C73.2431 88.8811 72.323 87.4074 72.3686 86.3701C72.4142 85.3327 71.6586 83.3541 71.6586 83.3541L70.5871 76.0733C70.6166 74.6721 70.4377 73.2743 70.0562 71.9256C69.4342 69.851 68.5125 67.1315 68.5125 67.1315L69.553 67.2243L74.8032 67.6917C74.8032 67.6917 87.5687 66.8335 88.1402 67.5467C88.2608 67.7799 88.3422 68.0313 88.3813 68.2909C88.9545 70.8655 89.7117 78.9313 89.7117 78.9313C89.7117 78.9313 91.2555 85.222 90.5927 85.8441C89.9299 86.4661 90.0114 88.4919 90.0114 88.4919C91.0047 90.4054 90.4266 93.9391 90.4266 93.9391Z" fill="#444053"/>
<path d="M79.6348 111.759C79.599 112.331 78.9622 112.365 78.9622 112.365C77.096 112.658 76.6987 113.385 76.6987 113.385C76.6987 113.385 74.9074 115.164 72.2058 114.905C69.9096 114.684 70.1327 114.275 70.2516 113.518C70.2747 113.377 70.2872 113.234 70.2891 113.091C70.2891 112.054 71.0838 111.759 72.3279 110.974C73.572 110.189 73.5378 109.54 74.0557 108.97C74.5735 108.4 74.6273 107.294 74.6273 107.294C75.2135 106.273 76.7003 107.457 76.7003 107.457C76.7703 107.818 78.9802 107.768 78.9802 107.768C78.9802 107.768 79.2733 108.944 79.4247 109.012C79.5241 109.058 79.599 109.979 79.6283 110.771C79.6446 111.186 79.6478 111.562 79.6348 111.759Z" fill="#B07473"/>
<path opacity="0.1" d="M79.6348 111.759C79.5989 112.331 78.9622 112.365 78.9622 112.365C77.096 112.658 76.6987 113.384 76.6987 113.384C76.6987 113.384 74.9074 115.164 72.2058 114.905C69.9096 114.684 70.1327 114.275 70.2516 113.518C71.2775 113.772 73.2382 114.127 74.383 113.505C75.974 112.642 77.1156 112.039 77.1156 112.039L79.6299 110.774C79.6445 111.186 79.6478 111.562 79.6348 111.759Z" fill="black"/>
<path d="M93.6995 114.835C93.577 115.062 93.3715 115.232 93.1263 115.309L93.0823 115.321C92.3219 115.484 89.3825 115.484 89.3825 115.484C89.3825 115.484 86.4106 113.186 85.5117 113.134C84.6128 113.082 84.1292 112.303 84.1292 112.303C84.1292 112.303 84.1471 111.769 84.2041 111.147C84.2741 110.411 84.3962 109.556 84.6128 109.331C85.0101 108.916 85.1013 108.354 85.9953 108.709C85.9953 108.709 87.272 106.459 88.7767 108.198L90.3335 110.559C90.3335 110.559 90.6266 111.536 92.5987 112.596C93.3869 113.02 93.7386 113.518 93.8379 113.972C93.9007 114.267 93.8513 114.575 93.6995 114.835Z" fill="#B07473"/>
<path opacity="0.1" d="M93.6995 114.835C93.5237 114.984 93.3299 115.143 93.1263 115.309L93.0823 115.321C92.3219 115.484 89.3825 115.484 89.3825 115.484C89.3825 115.484 86.4106 113.186 85.5117 113.134C84.6128 113.082 84.1292 112.303 84.1292 112.303C84.1292 112.303 84.1471 111.769 84.2041 111.147C85.1192 111.421 86.5051 111.904 86.8763 112.425C87.4463 113.218 89.1773 114.326 89.1773 114.326C89.1773 114.326 92.4049 114.015 93.8379 113.972C93.9007 114.267 93.8513 114.575 93.6995 114.835Z" fill="black"/>
<path d="M81.1395 34.4239L76.8892 38.9168C76.8892 38.9168 71.7384 38.5374 72.6373 37.0164C73.0949 36.2413 73.1666 34.6193 73.1258 33.2091C73.0884 31.8493 72.9483 30.6915 72.9483 30.6915C72.9483 30.6915 80.1722 27.0959 79.625 30.4489C79.5071 31.0807 79.5005 31.7282 79.6055 32.3623C79.9133 34.0559 81.1395 34.4239 81.1395 34.4239Z" fill="#D38884"/>
<path opacity="0.1" d="M79.6184 30.4489C79.5005 31.0807 79.4939 31.7282 79.5989 32.3623C79.1048 32.863 78.516 33.2604 77.8668 33.5313C77.2176 33.8022 76.521 33.9412 75.8176 33.9403C74.8405 33.9403 73.7836 33.1374 72.9938 32.6733C72.9564 31.3119 72.9482 30.6915 72.9482 30.6915C72.9482 30.6915 80.1721 27.0959 79.6184 30.4489Z" fill="black"/>
<path d="M81.1395 28.34C81.1399 29.5462 80.7308 30.7167 79.979 31.6599C79.2272 32.6031 78.1775 33.263 77.0016 33.5317C75.8258 33.8003 74.5936 33.6616 73.5068 33.1384C72.4201 32.6152 71.5432 31.7384 71.0199 30.6518C70.4966 29.5651 70.3578 28.3329 70.6262 27.157C70.8947 25.9811 71.5545 24.9313 72.4976 24.1794C73.4407 23.4275 74.6112 23.0182 75.8173 23.0185C77.0235 23.0188 78.1937 23.4286 79.1365 24.181C79.7611 24.6794 80.2655 25.3121 80.6123 26.0321C80.959 26.7521 81.1392 27.5409 81.1395 28.34Z" fill="#D38884"/>
<path opacity="0.1" d="M88.3813 68.291C87.0558 71.4453 78.5292 71.5104 78.5292 71.5104V68.0711L78.0129 68.0369C78.236 69.0221 77.7003 71.4241 77.7003 71.4241C70.9617 72.3751 69.3186 68.5352 69.3186 68.5352L69.5531 67.2211L74.8033 67.6884C74.8033 67.6884 87.5687 66.8302 88.1403 67.5435C88.2612 67.7777 88.3427 68.0302 88.3813 68.291Z" fill="black"/>
<path d="M78.5292 71.0952V67.6559L78.0129 67.6233C78.236 68.6004 77.7003 71.0105 77.7003 71.0105C72.6293 71.7254 70.4439 69.7289 69.6736 68.6964C69.5351 68.5186 69.4161 68.3265 69.3186 68.1232L71.377 56.5449L71.8655 39.5048L72.6032 36.5149L72.7742 35.0803V35.064H72.7921L73.3165 35.2887L76.4545 36.6452L80.0192 33.9534L80.0713 33.9159L80.2488 33.7808L80.5436 34.0169L81.2764 34.6048L83.6262 49.7803C83.6262 49.7803 87.6974 61.4645 88.4595 66.1805C88.4904 66.3694 88.5149 66.5453 88.5344 66.7097C89.0376 71.0154 78.5292 71.0952 78.5292 71.0952Z" fill="#2C7A7B"/>
<path d="M76.8354 37.2835C77.0026 37.2835 77.1383 37.1479 77.1383 36.9806C77.1383 36.8133 77.0026 36.6777 76.8354 36.6777C76.6681 36.6777 76.5325 36.8133 76.5325 36.9806C76.5325 37.1479 76.6681 37.2835 76.8354 37.2835Z" fill="#67647E"/>
<path d="M76.9755 40.0487C77.1428 40.0487 77.2784 39.9131 77.2784 39.7458C77.2784 39.5785 77.1428 39.4429 76.9755 39.4429C76.8082 39.4429 76.6726 39.5785 76.6726 39.7458C76.6726 39.9131 76.8082 40.0487 76.9755 40.0487Z" fill="#67647E"/>
<path d="M77.2785 44.5252C77.4458 44.5252 77.5814 44.3896 77.5814 44.2223C77.5814 44.055 77.4458 43.9194 77.2785 43.9194C77.1112 43.9194 76.9756 44.055 76.9756 44.2223C76.9756 44.3896 77.1112 44.5252 77.2785 44.5252Z" fill="#67647E"/>
<path d="M77.7782 49.3471C77.9455 49.3471 78.0811 49.2115 78.0811 49.0442C78.0811 48.8769 77.9455 48.7413 77.7782 48.7413C77.6109 48.7413 77.4753 48.8769 77.4753 49.0442C77.4753 49.2115 77.6109 49.3471 77.7782 49.3471Z" fill="#67647E"/>
<path d="M78.0812 53.8742C78.2485 53.8742 78.3841 53.7386 78.3841 53.5713C78.3841 53.404 78.2485 53.2684 78.0812 53.2684C77.9139 53.2684 77.7783 53.404 77.7783 53.5713C77.7783 53.7386 77.9139 53.8742 78.0812 53.8742Z" fill="#67647E"/>
<path d="M78.3842 58.6961C78.5515 58.6961 78.6871 58.5605 78.6871 58.3932C78.6871 58.2259 78.5515 58.0903 78.3842 58.0903C78.2169 58.0903 78.0813 58.2259 78.0813 58.3932C78.0813 58.5605 78.2169 58.6961 78.3842 58.6961Z" fill="#67647E"/>
<path d="M78.2636 63.4658C78.4309 63.4658 78.5665 63.3302 78.5665 63.1629C78.5665 62.9957 78.4309 62.86 78.2636 62.86C78.0963 62.86 77.9607 62.9957 77.9607 63.1629C77.9607 63.3302 78.0963 63.4658 78.2636 63.4658Z" fill="#67647E"/>
<path opacity="0.1" d="M72.976 58.2287C72.976 58.2287 72.6373 62.663 72.0152 63.9528C71.3932 65.2425 71.1163 68.8609 71.1163 68.8609L69.6719 68.6981C69.5334 68.5203 69.4144 68.3281 69.3169 68.1249L71.3752 56.5465L71.8638 39.5064L72.6031 36.5149L72.7741 35.0802L72.7936 35.0721C72.8743 35.034 72.9627 35.0149 73.0519 35.0163C73.1411 35.0177 73.2288 35.0396 73.3082 35.0802L73.3766 35.1161C73.356 35.1747 73.3364 35.2349 73.318 35.2968C72.7545 37.0604 72.5445 40.3108 72.5445 40.3108C72.5445 40.3108 73.3587 46.2563 73.4434 49.0215C73.5281 51.7866 72.976 58.2287 72.976 58.2287Z" fill="black"/>
<path opacity="0.1" d="M69.4242 68.0092C69.4084 68.0463 69.3899 68.0822 69.3689 68.1167C68.8087 69.0628 67.3886 69.6637 66.9571 69.8282C66.8757 69.6832 66.8301 69.5986 66.8301 69.5986L67.1297 68.1932L68.7142 67.5418C68.9653 67.6745 69.2031 67.831 69.4242 68.0092Z" fill="black"/>
<path d="M65.5862 45.3802L64.272 46.1635L63.0751 51.4869C63.0751 51.4869 61.5769 56.0026 62.7282 59.2286C63.8796 62.4545 64.5489 64.3012 64.5489 64.3012C64.5489 64.3012 65.0097 67.9652 65.7018 68.2649C66.3939 68.5645 66.6919 68.7257 66.6919 68.7257L66.8303 69.6018C66.8303 69.6018 68.7063 68.9651 69.3691 67.8431C70.0319 66.7211 68.8805 63.9348 68.8805 63.9348C68.8805 63.9348 67.8904 61.5605 68.1445 60.4548C68.3985 59.3491 67.6364 56.4455 67.6364 56.3837C67.6364 56.3218 67.568 54.7699 68.1249 53.5827C68.6819 52.3956 68.3106 51.8891 68.3106 51.8891L67.9637 48.5019L65.5862 45.3802Z" fill="#67647E"/>
<path opacity="0.1" d="M88.4902 67.2943C88.4902 67.2943 85.0102 68.6068 83.9045 67.4571C82.7988 66.3074 82.9128 60.9123 82.9128 60.9123C82.9128 60.9123 81.8543 50.9576 81.185 49.3226C80.5157 47.6876 80.8593 35.8878 80.8593 35.8878C80.8593 35.8878 80.4098 34.362 80.0174 33.963C79.9926 33.9374 79.9647 33.9149 79.9343 33.8962L80.0695 33.9256L80.5417 34.0265L81.2745 34.6144L83.6244 49.79C83.6244 49.79 87.6955 61.4741 88.4576 66.1902L88.4902 67.2943Z" fill="black"/>
<path opacity="0.1" d="M92.4996 67.6396H92.4605C92.0224 67.6966 88.1565 68.164 88.1402 67.3595C88.1396 67.2665 88.1445 67.1735 88.1548 67.081L91.7375 66.7146L92.4475 67.4442C92.4605 67.4914 92.4703 67.5321 92.48 67.5647L92.4996 67.6396Z" fill="black"/>
<path d="M88.7899 40.0485L91.3303 41.3741C91.3303 41.3741 93.4473 46.8555 93.786 49.2053C93.786 49.2053 95.3542 55.501 94.2745 58.0902C93.1949 60.6794 93.2844 65.8189 93.2844 65.8189C93.2844 65.8189 92.6623 66.7634 92.4083 66.511C92.1543 66.2585 92.5011 67.5011 92.5011 67.5011C92.5011 67.5011 88.158 68.0775 88.1401 67.2242C88.1222 66.3709 89.1367 62.2933 89.1367 62.2933C89.1367 62.2933 89.4136 52.5925 89.0211 51.0716C88.6287 49.5506 88.7899 40.0485 88.7899 40.0485Z" fill="#67647E"/>
<path opacity="0.1" d="M81.2094 50.3811C81.2094 50.3811 79.7796 53.8823 79.3187 54.1135C78.8579 54.3448 79.4116 55.2648 79.4116 55.2648C79.4116 55.2648 82.0155 51.6252 81.2094 50.3811Z" fill="black"/>
<path opacity="0.1" d="M80.3561 38.0993C80.3724 38.0326 78.6511 39.788 78.1902 40.0535C77.7294 40.3189 79.8724 40.0372 80.3561 38.0993Z" fill="black"/>
<path opacity="0.1" d="M75.5636 50.1044C75.5636 50.1044 72.9369 51.8029 73.2838 52.4754C73.6306 53.148 75.5636 50.1044 75.5636 50.1044Z" fill="black"/>
<path opacity="0.1" d="M80.3335 74.8976C80.3335 74.8976 82.5694 76.3355 86.0478 76.6889L80.3335 74.8976Z" fill="black"/>
<path opacity="0.1" d="M74.9644 78.3548C74.9644 78.3548 77.0374 80.9604 77.9835 81.0271C78.9297 81.0939 74.9644 78.3548 74.9644 78.3548Z" fill="black"/>
<path opacity="0.1" d="M77.8677 88.5652C77.7749 88.6108 76.692 90.915 75.5879 90.985C74.4838 91.0551 77.8677 88.5652 77.8677 88.5652Z" fill="black"/>
<path opacity="0.1" d="M87.4758 93.6134C87.4758 93.6134 89.5309 93.1525 89.9885 94.6263C89.9885 94.6214 89.8501 94.1605 87.4758 93.6134Z" fill="black"/>
<path opacity="0.1" d="M86.0933 102.042C86.0933 102.042 88.5832 101.534 89.1124 102.226C89.6416 102.918 86.0933 102.042 86.0933 102.042Z" fill="black"/>
<path opacity="0.1" d="M79.0501 103.221C79.0501 103.244 76.5162 103.729 76.6074 104.052C76.6986 104.374 79.3106 104.329 79.4034 103.821C79.42 103.758 79.4241 103.693 79.4152 103.629C79.4064 103.565 79.385 103.503 79.3521 103.447C79.3192 103.391 79.2756 103.343 79.2237 103.304C79.1719 103.265 79.1128 103.237 79.0501 103.221Z" fill="black"/>
<path opacity="0.1" d="M85.2642 105.407C85.2642 105.407 89.4281 104.899 89.1724 105.775C88.9168 106.651 85.2642 105.407 85.2642 105.407Z" fill="black"/>
<path opacity="0.1" d="M63.4658 54.1136C63.4886 54.182 66.2081 54.5516 66.5762 55.4278C66.5762 55.4278 63.9039 54.182 63.4821 54.182" fill="black"/>
<path opacity="0.1" d="M67.291 61.2332C67.291 61.2332 65.0323 61.9481 65.1935 63.0245C65.3548 64.1009 64.9639 62.5262 67.291 61.2332Z" fill="black"/>
<path opacity="0.1" d="M66.239 66.7179C66.239 66.7179 67.0614 65.5894 67.8447 65.7962C68.628 66.003 66.239 66.7179 66.239 66.7179Z" fill="black"/>
<path opacity="0.1" d="M79.1363 24.181C79.0572 24.2577 78.9685 24.324 78.8725 24.378C78.2211 24.7575 78.042 25.3421 77.7326 26.0163C77.4443 26.6334 77.1268 27.2865 76.5454 27.6366C75.7947 28.0893 74.8062 27.9232 74.0262 28.3173C73.6799 28.4975 73.3956 28.7774 73.2098 29.1208C73.0241 29.4641 72.9454 29.8553 72.984 30.2437C73.0336 30.5435 73.1076 30.8387 73.2055 31.1264C73.3829 31.7492 73.4631 32.3957 73.4432 33.0431C73.4449 33.062 73.4449 33.0811 73.4432 33.1C72.7759 32.7666 72.186 32.2966 71.7121 31.7204C71.2381 31.1443 70.8905 30.475 70.692 29.7558C70.4934 29.0367 70.4482 28.2839 70.5594 27.5462C70.6706 26.8084 70.9357 26.1024 71.3374 25.4737C71.7392 24.8451 72.2686 24.3079 72.8913 23.8971C73.5141 23.4863 74.2162 23.211 74.9522 23.0891C75.6882 22.9672 76.4417 23.0014 77.1636 23.1895C77.8855 23.3776 78.5598 23.7154 79.1428 24.181H79.1363Z" fill="black"/>
<path d="M78.998 22.5786C78.4134 21.3508 77.1416 20.5724 75.8339 20.1929C74.8357 19.9047 73.7511 19.8103 72.761 20.1278C72.1959 20.3069 71.683 20.6163 71.1537 20.8818C70.1669 21.3801 69.0823 21.7742 68.3398 22.5933C68.1655 22.7838 68.0141 23.0281 68.058 23.2805C68.0955 23.4678 68.2421 23.6062 68.3365 23.7788C68.5498 24.1534 68.4994 24.624 68.3512 25.0311C68.203 25.4382 67.9929 25.816 67.8919 26.2345C67.791 26.653 67.8301 27.1432 68.1395 27.4412C68.2779 27.5731 68.4554 27.6562 68.6052 27.7669C68.7745 27.9132 68.923 28.0819 69.0465 28.2685L69.9259 29.4703C70.339 30.0029 70.7072 30.5688 71.0267 31.1622C71.2449 31.5987 71.4143 32.0644 71.7074 32.4536C72.0005 32.8428 72.4565 33.1555 72.9418 33.1131C72.9794 33.1141 73.0166 33.1062 73.0506 33.0901C73.0845 33.0739 73.1142 33.05 73.1372 33.0203C73.1552 32.9822 73.1636 32.9403 73.1616 32.8982C73.1831 32.2532 73.1045 31.6089 72.9288 30.988C72.8307 30.7004 72.7567 30.4052 72.7073 30.1054C72.6698 29.717 72.749 29.3263 72.9346 28.9832C73.1202 28.64 73.4039 28.36 73.7495 28.1789C74.5312 27.7848 75.5196 27.9509 76.2687 27.4998C76.8517 27.1481 77.1693 26.4951 77.4559 25.8714C77.7702 25.1972 77.9444 24.6126 78.5958 24.2331C79.2472 23.8537 79.3221 23.2251 78.998 22.5786Z" fill="#585268"/>
<path opacity="0.1" d="M76.614 109.582C76.614 109.582 77.4283 110.619 77.2166 111.21C77.0048 111.802 76.614 109.582 76.614 109.582Z" fill="black"/>
<path opacity="0.1" d="M87.6304 112.178C87.6304 112.178 87.8111 110.787 88.5358 110.774C89.2605 110.761 89.2963 110.699 89.85 110.912C90.4037 111.126 90.9232 111.456 90.7571 111.505C90.591 111.554 89.8044 110.711 88.9967 111.142C88.4926 111.418 88.0321 111.767 87.6304 112.178Z" fill="black"/>
<path opacity="0.1" d="M74.1843 38.3892L76.4641 36.7917C76.4641 36.7917 73.1291 34.8212 72.7317 35.0981C72.3344 35.3749 72.0608 37.8664 72.0608 37.8664L74.1843 38.3892Z" fill="black"/>
<path d="M74.1745 38.2867L76.4544 36.6583C76.4544 36.6583 73.1193 34.6878 72.722 34.9646C72.3246 35.2415 72.051 37.8698 72.051 37.8698L74.1745 38.2867Z" fill="#E1E7EF"/>
<path d="M74.1745 38.2867L76.4544 36.6583C76.4544 36.6583 73.1193 34.6878 72.722 34.9646C72.3246 35.2415 72.051 37.8698 72.051 37.8698L74.1745 38.2867Z" fill="#2C7A7B"/>
<path d="M73.0998 34.9776L73.0314 34.9434C72.9297 34.8915 72.8151 34.8702 72.7015 34.8821C72.588 34.8939 72.4803 34.9384 72.3914 35.0102L65.5519 40.5583C65.5519 40.5583 64.0651 42.6151 64.2719 46.1635L68.3056 51.8777C68.3056 51.8777 68.7665 49.9431 69.3185 50.3112C69.3185 50.3112 70.1018 60.2203 69.3185 61.6485C68.5352 63.0766 68.19 68.4229 68.19 68.4229L70.8395 68.7225C70.8395 68.7225 71.1163 65.1041 71.7384 63.8143C72.3605 62.5246 72.6992 58.0903 72.6992 58.0903C72.6992 58.0903 73.2594 51.6481 73.1666 48.883C73.0738 46.1179 72.2677 40.1724 72.2677 40.1724C72.2677 40.1724 72.494 36.6875 73.0998 34.9776Z" fill="#67647E"/>
<path opacity="0.1" d="M79.9132 37.3796L77.0715 36.3276C77.0715 36.3276 80.69 32.364 81.1427 34.5624L79.9132 37.3796Z" fill="black"/>
<path d="M79.9132 37.2412L77.0715 36.1892C77.0715 36.1892 80.69 32.2256 81.1427 34.424L79.9132 37.2412Z" fill="#E1E7EF"/>
<path d="M79.9132 37.2412L77.0715 36.1892C77.0715 36.1892 80.69 32.2256 81.1427 34.424L79.9132 37.2412Z" fill="#2C7A7B"/>
<path opacity="0.1" d="M79.8203 33.8686C79.8613 33.862 79.9032 33.8713 79.9376 33.8946L79.8203 33.8686Z" fill="black"/>
<path d="M80.094 33.5935L87.6337 35.2219C87.6337 35.2219 89.7084 35.6828 91.2066 40.8906C92.7047 46.0984 89.1547 52.4787 89.1547 52.4787L88.3714 51.8126L88.7639 67.0208C88.7639 67.0208 85.2839 68.3333 84.1782 67.1836C83.0724 66.0339 83.1881 60.634 83.1881 60.634C83.1881 60.634 82.1279 50.6808 81.4586 49.0442C80.7893 47.4076 81.1329 35.6111 81.1329 35.6111C81.1329 35.6111 80.5174 33.5023 80.094 33.5935Z" fill="#67647E"/>
<path opacity="0.1" d="M86.9922 43.2844C86.8863 43.3821 86.7626 47.9841 87.2234 51.4869C87.5052 53.62 87.9405 55.73 88.5261 57.8004L87.8422 43.768C87.8422 43.768 87.3146 42.9847 86.9922 43.2844Z" fill="black"/>
<path opacity="0.1" d="M86.0703 39.3207C86.2543 39.4364 87.062 41.3482 86.6924 42.1314C86.3227 42.9147 86.0703 39.3207 86.0703 39.3207Z" fill="black"/>
<path opacity="0.1" d="M78.9541 22.5786C78.5839 21.8497 78.0074 21.246 77.2963 20.8427C77.825 21.2212 78.2519 21.7247 78.5388 22.3083C78.8645 22.9596 78.7684 23.611 78.135 23.9677C77.5015 24.3243 77.3044 24.9317 76.995 25.6059C76.7068 26.2231 76.3892 26.8761 75.8063 27.2343C75.0572 27.6871 74.0687 27.5193 73.287 27.9134C72.9416 28.0952 72.6581 28.3755 72.4725 28.7189C72.2869 29.0622 72.2077 29.453 72.2448 29.8415C72.2949 30.1408 72.3695 30.4354 72.4679 30.7225C72.6452 31.3454 72.7254 31.9919 72.7057 32.6392C72.7071 32.6814 72.6982 32.7234 72.6796 32.7613C72.6571 32.7912 72.6278 32.8153 72.5941 32.8314C72.5603 32.8476 72.5232 32.8554 72.4858 32.8542C72.2904 32.8691 72.0944 32.8326 71.9175 32.7483C72.0456 32.8754 72.1984 32.9749 72.3664 33.0407C72.5345 33.1065 72.7142 33.1373 72.8946 33.131C72.9239 33.1353 72.9539 33.1327 72.9821 33.1234C73.0103 33.1142 73.0359 33.0986 73.0571 33.0777C73.0782 33.0569 73.0942 33.0315 73.1039 33.0034C73.1136 32.9754 73.1166 32.9455 73.1128 32.916C73.1339 32.2688 73.0542 31.6221 72.8766 30.9993C72.7773 30.712 72.7027 30.4167 72.6535 30.1167C72.6161 29.7284 72.6952 29.3377 72.8809 28.9945C73.0665 28.6514 73.3502 28.3714 73.6958 28.1903C74.4774 27.7962 75.4659 27.9623 76.215 27.5112C76.798 27.1594 77.1155 26.5064 77.4022 25.8827C77.7164 25.2085 77.8907 24.6239 78.5421 24.2445C79.1935 23.8651 79.2798 23.2251 78.9541 22.5786Z" fill="black"/>
<path d="M125.344 43.0288C123.1 42.9848 121.12 41.4003 119.998 39.4641C119.703 39.0034 119.518 38.4814 119.457 37.9382C119.465 37.8148 119.485 37.6925 119.519 37.5735C119.587 37.3917 119.642 37.205 119.682 37.0149C119.691 36.9392 119.691 36.8626 119.682 36.7869C119.682 36.7869 119.682 36.7869 119.682 36.7739C119.735 36.3619 119.493 35.9597 119.193 35.6779C118.894 35.3962 118.517 35.1894 118.205 34.9093C117.241 34.0625 116.948 32.7044 116.93 31.4114V31.343C116.941 30.7893 116.985 30.234 116.98 29.6803C116.988 29.366 116.974 29.0516 116.939 28.7391C116.847 27.9558 116.549 27.1579 115.933 26.6579C114.327 25.3551 111.627 26.7117 109.965 25.4805C109.561 25.1793 109.234 24.7347 108.743 24.6175C108.374 24.5279 107.989 24.6484 107.628 24.7689C106.403 25.1728 105.037 25.7036 104.558 26.8859C104.285 27.565 104.361 28.3401 104.11 29.0273C103.948 29.4882 103.637 29.8839 103.41 30.3203C103.224 30.6489 103.134 31.0228 103.15 31.4C103.13 31.5952 103.157 31.7924 103.229 31.9748C103.314 32.1947 103.451 32.3907 103.628 32.5464C103.564 32.6824 103.485 32.8103 103.391 32.9275C103.078 33.3102 102.598 33.5789 102.272 33.9599C101.669 34.6585 101.692 35.6079 101.989 36.4287C102.285 37.2494 102.821 37.9969 103.19 38.7964C103.353 39.1433 103.477 39.5309 103.312 39.8761C103.197 40.1155 102.957 40.2979 102.772 40.5047C102.5 40.8092 102.33 41.1903 102.283 41.5957C98.6176 42.4328 98.6144 45.3786 98.6144 45.3786L96.6342 50.3585C96.6342 50.3585 96.3166 51.1971 95.9437 52.3045L93.6003 51.8843L95.2288 54.6104C94.921 55.721 94.7028 56.7502 94.7745 57.268C94.7745 57.268 94.0465 60.6878 95.3412 61.2854L98.1975 62.5703C98.3212 62.6462 98.4542 62.7058 98.5932 62.7478L98.7088 62.7999C98.7504 62.82 98.7961 62.8305 98.8423 62.8305C98.8886 62.8305 98.9343 62.82 98.9759 62.7999H98.984H99.015C99.0704 62.8036 99.1259 62.7953 99.1778 62.7754C99.2414 62.7412 99.2918 62.6868 99.3211 62.6207C99.3202 62.6153 99.3202 62.6098 99.3211 62.6045L100.176 62.3569L100.901 63.2151C101.226 63.4447 101.552 63.6434 101.86 63.8225L100.738 74.9644C100.738 74.9644 100.557 89.7834 100.01 93.1608C99.808 94.4115 99.8064 95.2648 99.8829 95.8445L99.8618 95.8803C99.9969 96.833 100.35 97.0202 100.35 97.0202V97.0072C100.357 97.0124 100.364 97.0168 100.371 97.0202C100.536 96.5876 100.732 96.1674 100.958 95.7631C100.958 95.8429 100.958 95.9259 100.958 96.0074C100.946 97.2645 100.907 99.0249 100.777 100.17C100.555 102.124 101.344 108.564 101.344 108.564L101.616 114.427C101.66 115.422 101.429 116.41 100.948 117.283C100.297 118.454 99.4644 120.102 99.4042 120.833C99.4009 120.873 99.4009 120.912 99.4042 120.952L98.0069 122.633C98.0069 122.633 97.4614 123.476 98.6941 123.816C99.3569 124.001 100.5 123.816 101.419 123.6C101.819 123.508 102.177 123.282 102.434 122.96C102.69 122.639 102.83 122.24 102.83 121.828C103.063 121.021 103.455 120.268 103.983 119.615L104.213 120.965L105.75 121.346L105.947 117.646C106.027 117.439 106.063 117.217 106.053 116.995C106.356 114.363 105.34 114.599 105.34 114.599C105.367 114.623 105.385 114.655 105.389 114.691L105.34 114.601C104.716 113.37 105.014 111.344 105.014 111.344C105.014 111.344 105.828 105.482 106.107 103.933C106.307 102.839 106.224 99.2561 106.157 97.2564C106.157 97.1733 106.157 97.0935 106.149 97.0137C108.533 96.9828 111.455 96.903 113.505 96.7043V96.9454L113.127 110.795C113.101 111.678 112.922 112.55 112.596 113.372C112.596 113.388 112.585 113.403 112.578 113.419C112.129 114.579 111.875 115.805 111.828 117.049L111.652 121.445V121.568C111.346 121.685 110.862 122.025 110.849 123.012C110.828 124.458 113.376 123.976 113.376 123.976C115.923 123.976 115.944 121.325 115.944 121.325C115.944 121.325 116.024 118.894 116.146 117.267C116.268 115.64 115.762 115.998 115.762 115.998L115.723 120.626C115.723 120.638 115.723 120.649 115.723 120.662V116.606L115.762 116.018V116.002V115.876L116.083 111.103C116.083 111.103 118.429 103.15 118.793 101.624C119.051 100.539 118.944 97.2727 118.859 95.4667C118.859 95.3837 118.859 95.3039 118.846 95.2273C119.574 95.1622 120.217 95.1557 120.475 95.1557H120.594C120.594 95.1557 120.473 82.3821 120.169 77.5683C119.864 72.7546 119.38 68.3497 118.167 67.0241C117.434 66.2229 116.413 63.7493 115.725 61.9172C117.173 62.5434 118.676 63.034 120.214 63.3829C124.056 64.1873 123.53 60.8522 123.53 60.8522L123.141 54.5452H123.167C123.152 52.8931 123.011 51.2446 122.743 49.6143C122.54 48.3636 122.229 47.0706 121.753 46.0317C122.17 45.8688 122.582 45.6946 122.986 45.5154C124.03 45.0546 125.205 44.4016 125.355 43.2763H125.305C125.325 43.1951 125.338 43.1123 125.344 43.0288ZM101.531 52.1481C101.539 52.7995 101.515 53.9297 101.476 55.1787L100.256 53.5502L101.479 51.5668L101.531 52.1481ZM118.382 57.9194L116.35 57.268C116.71 56.7057 117.131 56.1848 117.605 55.7145L117.781 55.5516L117.718 55.5646L117.815 55.4751L117.874 55.462L117.781 55.5516L117.892 55.5288C118.014 56.0393 118.251 56.5154 118.584 56.9211C119.314 57.7175 118.384 57.9194 118.384 57.9194H118.382Z" fill="url(#paint1_linear)"/>
<path d="M111.601 121.647L113.914 122.126L115.628 120.612V116.343L115.668 115.76V115.742V115.619L115.987 110.875C115.987 110.875 118.301 102.979 118.661 101.463C118.915 100.388 118.809 97.1439 118.724 95.351C118.69 94.6165 118.661 94.1247 118.661 94.1247L113.555 92.8887L113.448 96.8133L113.075 110.564C113.049 111.441 112.872 112.306 112.552 113.122L112.534 113.17C112.09 114.321 111.84 115.538 111.793 116.772L111.621 121.144V121.265L111.601 121.647Z" fill="#CC818C"/>
<path d="M99.5574 120.67C99.616 121.708 102.668 121.108 102.668 121.108L104.721 117.122C104.721 117.122 106.436 115.804 105.578 114.648C105.532 114.585 105.49 114.519 105.452 114.451C105.452 114.451 105.452 114.451 105.444 114.441C105.426 114.412 105.41 114.381 105.394 114.349C104.778 113.127 105.081 111.124 105.081 111.124C105.081 111.124 105.877 105.301 106.158 103.765C106.355 102.681 106.273 99.1225 106.208 97.1325C106.182 96.3052 106.158 95.7499 106.158 95.7499L101.091 94.3934C101.091 94.3934 101.091 95.0253 101.091 95.9046C101.08 97.1537 101.041 98.901 100.912 100.038C100.694 101.971 101.471 108.372 101.471 108.372L101.74 114.197C101.786 115.184 101.561 116.165 101.088 117.032C100.453 118.195 99.6225 119.833 99.5655 120.558C99.5599 120.595 99.5571 120.633 99.5574 120.67Z" fill="#CC818C"/>
<path opacity="0.1" d="M113.555 93.3724L113.448 97.297C114.808 97.1651 115.782 96.9811 115.948 96.7222C116.308 96.1652 117.614 95.9307 118.724 95.8347C118.69 95.1002 118.661 94.6084 118.661 94.6084L113.555 93.3724Z" fill="black"/>
<path opacity="0.1" d="M101.091 96.3818C101.221 96.1159 101.413 95.8848 101.65 95.7076C102.187 95.4096 102.129 97.6227 102.129 97.6227C102.129 97.6227 103.92 97.639 106.208 97.6096C106.182 96.7824 106.157 96.2255 106.157 96.2255L101.091 94.8706C101.091 94.8706 101.101 95.4992 101.091 96.3818Z" fill="black"/>
<path d="M100.513 96.9061C100.513 96.9061 101.112 95.2776 101.653 94.9877C102.194 94.6979 102.132 96.9012 102.132 96.9012C102.132 96.9012 115.293 97.0217 115.951 96.0039C116.609 94.9861 120.437 95.0464 120.437 95.0464C120.437 95.0464 120.318 82.364 120.019 77.5796C119.719 72.7952 119.242 68.426 118.045 67.1102C117.272 66.2586 116.171 63.5032 115.49 61.6663C115.12 60.6632 114.875 59.932 114.875 59.932L102.313 60.6485L102.21 61.6663L100.876 75.0066C100.876 75.0066 100.697 89.7229 100.158 93.0727C99.6192 96.4224 100.513 96.9061 100.513 96.9061Z" fill="#444053"/>
<g opacity="0.1">
<path opacity="0.1" d="M114.928 96.004C115.58 94.9878 119.415 95.0464 119.415 95.0464C119.415 95.0464 119.296 82.364 118.996 77.5796C118.697 72.7952 118.219 68.426 117.022 67.1102C116.246 66.2553 115.148 63.5032 114.467 61.6663C114.156 60.8228 113.933 60.173 113.871 59.9874L114.848 59.932C114.848 59.932 115.094 60.6632 115.466 61.6663C116.146 63.5032 117.246 66.2586 118.019 67.1102C119.216 68.426 119.695 72.7936 119.993 77.5796C120.291 82.3656 120.413 95.0464 120.413 95.0464C120.413 95.0464 116.584 94.9878 115.925 96.004C115.363 96.8719 105.679 96.9126 102.868 96.9045C106.475 96.8964 114.42 96.7889 114.928 96.004Z" fill="black"/>
<path opacity="0.1" d="M100.63 94.9878C100.873 94.8527 100.994 95.2272 101.054 95.6815C100.836 96.0757 100.648 96.4849 100.489 96.9061C100.489 96.9061 100.142 96.7189 100 95.7662C100.199 95.4259 100.419 95.1051 100.63 94.9878Z" fill="black"/>
</g>
<path d="M104.395 29.247C103.526 30.4325 104.405 32.118 103.472 33.2709C103.164 33.652 102.69 33.9223 102.37 34.2969C101.775 34.9906 101.798 35.9335 102.089 36.7477C102.381 37.5619 102.904 38.3045 103.275 39.0992C103.438 39.4428 103.558 39.8287 103.395 40.1707C103.281 40.4084 103.045 40.5892 102.861 40.7944C102.262 41.4637 102.246 42.3935 102.568 43.1817C102.891 43.9699 103.506 44.6473 104.114 45.315C104.353 45.5772 104.656 45.867 105.055 45.8589C105.265 45.843 105.467 45.7765 105.646 45.6651C107.028 44.9594 108.084 43.7481 108.594 42.2833C109.105 40.8184 109.031 39.213 108.388 37.8013C107.883 36.5913 107.042 35.4319 107.033 34.1535C107.033 33.139 107.555 32.1701 107.647 31.1604C107.76 29.9326 107.033 27.9833 105.552 27.4476C105.649 28.2357 104.837 28.638 104.395 29.247Z" fill="#585268"/>
<path opacity="0.1" d="M104.395 29.247C103.526 30.4325 104.405 32.118 103.472 33.2709C103.164 33.652 102.69 33.9223 102.37 34.2969C101.775 34.9906 101.798 35.9335 102.089 36.7477C102.381 37.5619 102.904 38.3045 103.275 39.0992C103.438 39.4428 103.558 39.8287 103.395 40.1707C103.281 40.4084 103.045 40.5892 102.861 40.7944C102.262 41.4637 102.246 42.3935 102.568 43.1817C102.891 43.9699 103.506 44.6473 104.114 45.315C104.353 45.5772 104.656 45.867 105.055 45.8589C105.265 45.843 105.467 45.7765 105.646 45.6651C107.028 44.9594 108.084 43.7481 108.594 42.2833C109.105 40.8184 109.031 39.213 108.388 37.8013C107.883 36.5913 107.042 35.4319 107.033 34.1535C107.033 33.139 107.555 32.1701 107.647 31.1604C107.76 29.9326 107.033 27.9833 105.552 27.4476C105.649 28.2357 104.837 28.638 104.395 29.247Z" fill="black"/>
<path opacity="0.1" d="M114.039 72.3702C112.299 72.4614 110.66 73.2105 109.136 74.0573C107.612 74.9041 106.136 75.8633 104.497 76.4642" fill="black"/>
<path opacity="0.1" d="M112.958 76.4723C111.236 76.6365 109.631 77.4172 108.439 78.6707C108.016 79.1185 107.651 79.6201 107.21 80.05C106.534 80.7093 105.699 81.1823 104.786 81.4228" fill="black"/>
<path opacity="0.1" d="M113.314 79.594C111.926 79.9794 110.669 80.7374 109.68 81.7859C109.413 82.0742 109.17 82.3819 108.903 82.6702C107.462 84.2172 105.426 85.038 103.461 85.8148" fill="black"/>
<path d="M113.166 36.3016C113.205 37.6927 113.324 39.0803 113.525 40.4574C113.687 41.4345 113.915 42.3139 114.243 42.7031C115.2 43.843 109.577 45.3656 109.577 45.3656L106.257 42.7926C106.257 42.7926 108.888 40.3695 107.662 38.0066C106.436 35.6437 113.166 36.3016 113.166 36.3016Z" fill="#CC818C"/>
<path opacity="0.1" d="M102.207 61.6663H115.487C115.117 60.6632 114.871 59.932 114.871 59.932L102.309 60.6485L102.207 61.6663Z" fill="black"/>
<path d="M101.352 61.427H115.551C115.152 59.9989 115.551 58.6782 116.119 57.662C116.517 56.9499 117.018 56.3003 117.606 55.7339L117.703 55.6444L122.66 54.5468L122.927 54.4882C122.927 54.4882 122.968 45.4747 119.776 44.237C116.585 42.9994 114.671 41.327 114.671 41.327L110.286 42.6819L107.055 41.0534C106.018 42.1689 103.265 41.7308 103.265 41.7308C98.7595 42.2487 98.7595 45.6391 98.7595 45.6391C98.7595 45.6391 101.391 51.78 101.591 51.78C101.792 51.78 101.352 61.427 101.352 61.427Z" fill="#2C7A7B"/>
<path opacity="0.1" d="M106.253 55.6965C106.253 55.6965 103.358 55.0549 102.373 53.9329L106.253 55.6965Z" fill="black"/>
<path opacity="0.1" d="M120.852 52.3337L117.495 55.0858C117.519 55.3049 117.556 55.5223 117.605 55.7372L117.703 55.6476L122.66 54.55L120.852 52.3337Z" fill="black"/>
<path opacity="0.1" d="M111.761 60.4695C111.761 60.4695 112.495 60.8831 113.621 61.4271H115.55C115.151 59.9989 115.55 58.6782 116.119 57.6621L112.717 56.5612C113.875 57.6376 111.761 60.4695 111.761 60.4695Z" fill="black"/>
<path d="M100.753 44.5578L98.7593 45.6342L96.8052 50.5798C96.8052 50.5798 94.7712 56.0026 94.9699 57.4389C94.9699 57.4389 94.2534 60.8293 95.5285 61.427L98.8505 62.9317C98.9092 62.9576 98.9745 62.9646 99.0374 62.9517C99.1003 62.9389 99.1576 62.9068 99.2014 62.8599C99.2452 62.813 99.2734 62.7537 99.282 62.6901C99.2906 62.6265 99.2793 62.5618 99.2495 62.505C98.7756 61.6077 98.2545 60.204 99.0866 59.4321L98.1291 57.4389L101.59 51.7751L102.746 49.821L100.753 44.5578Z" fill="#2C7A7B"/>
<path opacity="0.1" d="M105.187 54.5647C105.359 55.2681 105.942 56.356 107.872 56.7614L109.989 58.4958L112.241 59.5168L113.16 59.9321L113.549 57.1197L112.665 56.6312L111.634 56.0677C111.634 56.0677 109.308 51.8549 105.626 53.625C105.455 53.7061 105.318 53.8443 105.238 54.0158C105.157 54.1873 105.139 54.3813 105.187 54.5647Z" fill="black"/>
<path d="M105.307 54.3253C105.48 55.0304 106.061 56.1166 107.991 56.522L110.108 58.2564L112.362 59.2774L113.279 59.6926L113.668 56.8803L112.784 56.3918L111.761 55.8332C111.761 55.8332 109.434 51.6204 105.752 53.3987C105.583 53.4785 105.446 53.6142 105.365 53.783C105.284 53.9517 105.264 54.1432 105.307 54.3253Z" fill="#CC818C"/>
<path opacity="0.1" d="M109.457 39.9493C112.298 39.9493 114.601 37.6461 114.601 34.805C114.601 31.9639 112.298 29.6607 109.457 29.6607C106.615 29.6607 104.312 31.9639 104.312 34.805C104.312 37.6461 106.615 39.9493 109.457 39.9493Z" fill="black"/>
<path d="M109.457 39.8304C112.298 39.8304 114.601 37.5272 114.601 34.6861C114.601 31.845 112.298 29.5418 109.457 29.5418C106.615 29.5418 104.312 31.845 104.312 34.6861C104.312 37.5272 106.615 39.8304 109.457 39.8304Z" fill="#CC818C"/>
<path opacity="0.1" d="M112.644 45.6782L111.097 42.6721C111.097 42.6721 113.36 41.7569 113.525 40.6968C113.689 39.6366 115.694 41.9393 115.261 42.703C114.827 43.4668 112.644 45.6782 112.644 45.6782Z" fill="black"/>
<path d="M112.644 45.4388L111.097 42.4326C111.097 42.4326 113.36 41.5174 113.525 40.4573C113.689 39.3972 115.694 41.7015 115.261 42.4636C114.827 43.2257 112.644 45.4388 112.644 45.4388Z" fill="#2C7A7B"/>
<path d="M99.9823 53.2049L108.53 64.6969C108.53 64.6969 105.379 66.4116 101.039 63.342L99.1648 61.1078L93.8137 52.0878L99.9823 53.2049Z" fill="#F6F8FB"/>
<path d="M98.3001 59.4533L99.0786 59.4321C99.0786 59.4321 103.834 54.8171 105.001 57.1523C106.169 59.4875 102.039 61.6696 102.039 61.6696L100.784 62.3471L99.1469 62.8356L98.0999 61.4302L98.3001 59.4533Z" fill="#CC818C"/>
<path opacity="0.1" d="M99.4483 61.9465C99.52 62.2119 99.5884 62.505 99.4679 62.7509C99.439 62.8167 99.3892 62.8711 99.3262 62.9056C99.2744 62.9256 99.2186 62.9334 99.1633 62.9284C98.7514 62.8934 98.368 62.7037 98.0902 62.3975C97.8173 62.0924 97.5837 61.7543 97.3948 61.3912C97.1831 61.0215 96.9633 60.6127 97.0382 60.1926C97.1228 59.735 97.5267 59.4175 97.9224 59.1602C98.7106 58.6391 98.7367 59.2465 98.9093 59.9174C99.0819 60.5883 99.2676 61.269 99.4483 61.9465Z" fill="black"/>
<path d="M99.3295 61.9465C99.3995 62.2119 99.4695 62.505 99.349 62.7509C99.3202 62.8167 99.2703 62.8711 99.2074 62.9056C99.1555 62.9255 99.0998 62.9333 99.0445 62.9284C98.6324 62.8942 98.2487 62.7044 97.9714 62.3975C97.6974 62.0929 97.4632 61.7547 97.2744 61.3912C97.0627 61.0215 96.8428 60.6127 96.9194 60.1926C97.0024 59.735 97.4079 59.4175 97.802 59.1602C98.5918 58.6391 98.6162 59.2465 98.7905 59.9174C98.9647 60.5883 99.1471 61.269 99.3295 61.9465Z" fill="#2C7A7B"/>
<path opacity="0.1" d="M101.591 51.7752L101.989 51.1026L101.642 52.3516L101.591 51.7752Z" fill="black"/>
<path opacity="0.1" d="M112.368 59.2774L113.285 59.6927L113.674 56.8803L112.79 56.3918C113.401 57.092 112.867 58.3866 112.368 59.2774Z" fill="black"/>
<path opacity="0.1" d="M116.049 56.0124C116.049 56.0124 113.088 56.1932 111.831 55.3854L116.049 56.0124Z" fill="black"/>
<g opacity="0.1">
<path opacity="0.1" d="M115.681 57.9014C116.079 57.1888 116.58 56.5386 117.167 55.9717C117.308 55.8833 117.455 55.8039 117.605 55.7339L122.22 54.7862L122.488 54.7275C122.488 54.7275 122.528 45.714 119.338 44.4764C117.549 43.7959 115.871 42.8513 114.362 41.6738L114.712 41.5663C114.712 41.5663 116.625 43.2404 119.817 44.4764C123.009 45.7124 122.966 54.7275 122.966 54.7275H122.488L117.765 55.6313C117.765 55.6313 117.561 55.8284 117.5 55.8854C116.907 56.4786 116.399 57.1504 115.99 57.8819C115.365 59.0421 115.223 60.402 115.594 61.6664H115.106C114.712 60.2382 115.119 58.9176 115.681 57.9014Z" fill="black"/>
<path opacity="0.1" d="M103.076 41.9913C103.153 41.9799 103.226 41.9685 103.306 41.9604C103.63 42.0063 103.956 42.033 104.283 42.0402C103.88 42.0513 103.477 42.035 103.076 41.9913Z" fill="black"/>
<path opacity="0.1" d="M109.846 42.9212L106.924 41.4425C106.982 41.395 107.037 41.3433 107.087 41.2878L110.136 42.83L109.846 42.9212Z" fill="black"/>
</g>
<path d="M120.968 52.0878L122.922 54.4816L123.321 60.9824C123.321 60.9824 123.839 64.2914 120.051 63.4935C116.264 62.6955 111.88 60.2301 111.88 60.2301C111.88 60.2301 113.997 57.3982 112.837 56.3218L118.262 58.0772C118.262 58.0772 119.179 57.8769 118.46 57.0806C117.742 56.2843 117.615 54.8464 117.615 54.8464L120.968 52.0878Z" fill="#2C7A7B"/>
<path opacity="0.1" d="M121.851 58.955L122.927 60.191C122.65 60.1059 122.403 59.9451 122.213 59.7266C122.022 59.5082 121.897 59.2409 121.851 58.955Z" fill="black"/>
<path opacity="0.1" d="M120.016 58.7547L121.691 60.9075L120.854 61.1078L120.016 58.7547Z" fill="black"/>
<path opacity="0.1" d="M103.312 32.3249C103.128 31.8738 103.27 31.3478 103.492 30.9228C103.713 30.4978 104.018 30.0955 104.184 29.6379C104.43 28.9572 104.355 28.187 104.623 27.5209C105.097 26.3403 106.444 25.8127 107.651 25.4039C108.007 25.2851 108.387 25.1662 108.751 25.2541C109.24 25.3698 109.558 25.8127 109.957 26.1107C111.595 27.332 114.259 25.9869 115.843 27.2799C116.449 27.7685 116.744 28.568 116.835 29.3448C116.926 30.1216 116.835 30.9098 116.825 31.6931C116.799 33.0642 117.057 34.564 118.083 35.4727C118.392 35.7463 118.757 35.9515 119.06 36.2348C119.363 36.5182 119.6 36.9139 119.548 37.3243C119.508 37.5127 119.454 37.6978 119.385 37.8779C119.182 38.5928 119.486 39.3435 119.858 39.9949C120.965 41.9116 122.917 43.4912 125.131 43.5352C124.982 44.6523 123.828 45.3004 122.794 45.758C121.491 46.3427 120.103 46.9159 118.669 46.8426C117.234 46.7693 115.738 45.8509 115.487 44.4374C115.4 43.9488 115.412 43.361 114.998 43.1069C114.744 42.9522 114.415 42.9913 114.142 42.8757C113.746 42.7128 113.551 42.2683 113.42 41.8595C113.153 41.0161 113.01 40.1385 112.995 39.254C112.977 38.2053 113.116 37.0604 112.521 36.1974C111.971 35.3978 110.994 34.9923 110.359 34.2579C109.773 33.5772 109.136 32.7564 108.175 32.6294C106.846 32.4421 104.097 34.2481 103.312 32.3249Z" fill="black"/>
<path d="M103.312 32.0854C103.128 31.6344 103.27 31.1084 103.492 30.6833C103.713 30.2583 104.018 29.8561 104.184 29.3985C104.43 28.7178 104.355 27.9475 104.623 27.2815C105.097 26.0992 106.444 25.5716 107.651 25.1645C108.007 25.0456 108.387 24.9268 108.751 25.0147C109.24 25.1303 109.558 25.5732 109.957 25.8713C111.595 27.0926 114.259 25.7475 115.843 27.0405C116.449 27.529 116.744 28.3286 116.835 29.107C116.926 29.8854 116.835 30.6703 116.825 31.4536C116.799 32.8248 117.057 34.3246 118.083 35.2332C118.392 35.5068 118.757 35.712 119.06 35.9954C119.363 36.2787 119.6 36.6744 119.548 37.0848C119.508 37.2732 119.454 37.4583 119.385 37.6385C119.182 38.3534 119.486 39.1041 119.858 39.7555C120.968 41.6656 122.913 43.2501 125.126 43.2941C124.977 44.4112 123.823 45.0593 122.789 45.5186C121.486 46.1015 120.099 46.6748 118.664 46.6015C117.229 46.5282 115.733 45.6098 115.482 44.1963C115.396 43.7077 115.407 43.1198 114.993 42.8658C114.739 42.7111 114.41 42.7502 114.137 42.6346C113.741 42.4717 113.546 42.0272 113.415 41.6184C113.148 40.7751 113.005 39.8974 112.99 39.0129C112.972 37.9642 113.111 36.8194 112.516 35.9563C111.966 35.1567 110.989 34.7512 110.354 34.0168C109.768 33.3361 109.131 32.5154 108.17 32.3883C106.846 32.2027 104.097 34.0119 103.312 32.0854Z" fill="#585268"/>
<path opacity="0.1" d="M106.964 45.3053L109.913 42.9115C109.913 42.9115 107.893 41.8171 107.652 40.884C107.411 39.9509 105.796 41.327 105.96 42.164C106.125 43.001 106.964 45.3053 106.964 45.3053Z" fill="black"/>
<path d="M107.079 44.9455L110.028 42.5533C110.028 42.5533 108.009 41.4589 107.778 40.5258C107.546 39.5927 105.921 40.9688 106.086 41.8058C106.25 42.6428 107.079 44.9455 107.079 44.9455Z" fill="#2C7A7B"/>
<path opacity="0.1" d="M110.144 44.7906C110.273 44.7906 110.378 44.6857 110.378 44.5561C110.378 44.4266 110.273 44.3217 110.144 44.3217C110.014 44.3217 109.909 44.4266 109.909 44.5561C109.909 44.6857 110.014 44.7906 110.144 44.7906Z" fill="black"/>
<path opacity="0.1" d="M110.144 46.0934C110.273 46.0934 110.378 45.9884 110.378 45.8589C110.378 45.7294 110.273 45.6244 110.144 45.6244C110.014 45.6244 109.909 45.7294 109.909 45.8589C109.909 45.9884 110.014 46.0934 110.144 46.0934Z" fill="black"/>
<path opacity="0.1" d="M110.144 47.3945C110.273 47.3945 110.378 47.2895 110.378 47.16C110.378 47.0305 110.273 46.9255 110.144 46.9255C110.014 46.9255 109.909 47.0305 109.909 47.16C109.909 47.2895 110.014 47.3945 110.144 47.3945Z" fill="black"/>
<g opacity="0.1">
<path opacity="0.1" d="M104.503 28.7601C104.736 28.1201 104.685 27.4019 104.904 26.7571C104.802 26.8997 104.719 27.0538 104.654 27.2163C104.384 27.8889 104.461 28.6591 104.213 29.3333L104.197 29.3724C104.317 29.1781 104.42 28.9732 104.503 28.7601Z" fill="black"/>
<path opacity="0.1" d="M123.108 44.8801C121.805 45.4631 120.418 46.0364 118.983 45.9631C117.548 45.8898 116.052 44.9713 115.801 43.5595C115.715 43.0709 115.726 42.4814 115.313 42.2274C115.059 42.0727 114.73 42.1118 114.456 41.9962C114.06 41.8333 113.865 41.3887 113.735 40.98C113.468 40.1367 113.324 39.259 113.31 38.3745C113.292 37.3274 113.432 36.1826 112.837 35.3179C112.285 34.5183 111.308 34.1144 110.673 33.3784C110.087 32.6993 109.45 31.8769 108.489 31.7499C107.172 31.5708 104.418 33.3784 103.64 31.4535C103.515 31.0898 103.533 30.6922 103.69 30.3413C103.633 30.4374 103.578 30.5335 103.527 30.6312C103.306 31.0643 103.166 31.5838 103.35 32.0349C104.133 33.9565 106.882 32.1505 108.199 32.3313C109.16 32.4616 109.797 33.2839 110.383 33.9597C111.018 34.6958 111.995 35.0997 112.546 35.9009C113.142 36.7639 113.002 37.9087 113.02 38.9558C113.034 39.8403 113.178 40.718 113.445 41.5614C113.575 41.9717 113.77 42.4114 114.166 42.5775C114.44 42.6931 114.769 42.6557 115.023 42.8088C115.443 43.0628 115.431 43.6572 115.511 44.1408C115.765 45.5527 117.26 46.4711 118.693 46.5444C120.126 46.6177 121.507 46.0461 122.818 45.4615C123.763 45.0414 124.815 44.46 125.098 43.5074C124.645 44.1262 123.844 44.5528 123.108 44.8801Z" fill="black"/>
</g>
<path d="M151.888 54.0712C148.44 52.0878 147.138 51.5992 147.131 51.5992L147.059 51.5488C146.684 51.2602 146.386 50.8831 146.191 50.4512C146.187 50.3725 146.187 50.2937 146.191 50.2151C146.191 50.2226 146.191 50.2303 146.191 50.2379C146.245 49.1875 146.993 48.2316 147.701 47.3978L149.513 45.2662C149.719 45.0553 149.879 44.8034 149.981 44.5269C150.017 44.3783 150.034 44.2255 150.03 44.0725C150.03 44.0106 150.03 43.9488 150.03 43.8869C150.02 43.3576 150.005 42.8268 149.986 42.2975C149.969 41.835 149.851 41.252 149.388 41.1576C149.147 41.1087 148.828 41.195 148.701 40.9947C148.658 40.9097 148.647 40.812 148.67 40.7195C148.669 40.7271 148.669 40.7348 148.67 40.7423V40.7163C148.759 40.359 148.817 39.9944 148.841 39.6268C148.851 39.4397 148.826 39.2524 148.766 39.0748C148.499 38.3078 147.576 37.9919 146.76 37.8469C145.944 37.702 145.029 37.5782 144.517 36.9399C144.38 36.7269 144.231 36.5219 144.071 36.326C143.835 36.1164 143.547 35.9741 143.237 35.914C142.225 35.6645 141.158 35.7572 140.204 36.1778C139.809 36.3536 139.414 36.5914 138.981 36.5653C138.547 36.5393 138.147 36.2266 137.704 36.1517C136.987 36.0296 136.302 36.5556 135.948 37.1793C135.739 37.5491 135.627 37.9659 135.623 38.3908V38.4625C135.612 38.9197 135.779 39.3631 136.088 39.7001C136.398 40.0258 136.857 40.2408 136.986 40.6625C137.038 40.8335 137.025 41.0192 137.072 41.1934C137.077 41.215 137.084 41.2362 137.092 41.2569L137.069 41.2879C136.33 42.2336 135.928 43.3997 135.929 44.6001C135.937 45.7661 136.315 46.8993 137.01 47.8361C137.704 48.7728 138.678 49.4645 139.792 49.8112C139.792 49.8649 139.792 49.9187 139.792 49.974C139.792 50.6254 139.604 51.3045 139.042 51.7979L134.159 53.7488C134.159 53.7488 131.215 53.3987 130.153 57.7011C129.983 58.4152 129.922 59.1508 129.97 59.8832C130.009 60.5346 129.92 61.6745 129.156 63.1515C127.949 65.516 128.225 70.9437 130.693 71.4811C133.024 71.9891 133.936 71.7774 134.032 71.753V71.8475C133.993 72.8669 133.623 81.6508 132.28 82.7125C131.908 83.0073 131.977 83.2011 132.28 83.3395C132.28 83.3395 132.28 83.3965 132.271 83.5023C132.231 84.1537 132.024 86.5964 131.131 87.9838C130.088 89.596 130.197 98.8945 130.197 98.8945L129.485 104.376C129.485 104.376 129.923 107.761 129.485 108.353C129.093 108.879 128.572 121.403 128.462 124.119H128.417C128.201 124.133 127.992 124.2 127.808 124.314C127.624 124.427 127.471 124.584 127.362 124.771C126.785 125.707 124.766 127.438 124.766 127.438C124.328 128.06 122.707 128.656 121.851 128.936C121.738 128.973 121.629 129.021 121.525 129.08C121.205 129.254 120.947 129.525 120.789 129.855C120.733 129.952 120.697 130.06 120.683 130.172C120.67 130.284 120.679 130.398 120.711 130.506C120.929 131.042 125.484 131.42 126.637 130.881C127.542 130.459 131.131 129.904 132.622 129.685C132.892 129.651 133.144 129.528 133.336 129.335C133.529 129.142 133.652 128.891 133.687 128.62C133.701 128.527 133.696 128.432 133.672 128.34C133.649 128.249 133.607 128.163 133.55 128.088C133.265 127.734 133.12 126.769 133.061 126.134C133.182 126.084 133.295 126.017 133.397 125.935C133.272 123.983 133.549 122.026 134.211 120.185C135.308 117.283 135.637 111.909 135.364 108.416C135.364 108.416 138.71 94.014 141.345 92.6705C141.386 92.7226 142.664 94.3625 142.827 99.4417C142.99 104.601 144.856 107.986 144.856 107.986C144.856 107.986 144.032 116.746 144.856 120.024L143.78 125.194C143.7 125.127 143.649 125.075 143.649 125.075C143.649 125.075 143.682 125.218 143.726 125.448L143.703 125.559L143.75 125.569C143.872 126.22 144.053 127.342 143.978 128.011C143.936 128.387 143.83 128.904 143.758 129.41C143.645 130.206 143.614 130.978 144.032 131.148C144.719 131.425 148.755 131.799 149.439 130.913C149.592 130.733 149.693 130.513 149.728 130.278C149.763 130.043 149.731 129.804 149.637 129.586C149.588 129.464 149.521 129.35 149.439 129.247C149.439 129.247 148.367 127.497 148.67 126.262C148.698 126.142 148.701 126.017 148.679 125.895C148.657 125.773 148.61 125.657 148.541 125.554C148.588 124.948 148.833 122.144 149.465 119.763C150.152 117.177 151.599 111.507 150.534 107.779C150.494 107.633 150.449 107.489 150.398 107.349C149.783 105.314 149.578 103.177 149.794 101.062C149.398 99.2562 149.398 97.3863 149.794 95.5806C150.453 92.5712 150.914 89.6156 150.914 89.6156C150.914 89.6156 151.277 85.6389 150.96 83.2011C150.96 83.149 150.945 83.0968 150.938 83.0382L151.111 82.9991C151.111 82.9991 150.178 78.8612 149.849 76.228C149.771 75.6059 149.67 74.8194 149.559 73.9791C149.863 73.9288 150.162 73.8542 150.453 73.756C153.415 72.735 154.348 63.4967 154.348 63.4967V60.5655C154.348 60.5655 155.345 56.0596 151.888 54.0712ZM129.812 125.437C129.721 125.391 129.667 125.36 129.667 125.36L129.812 125.437Z" fill="url(#paint2_linear)"/>
<path d="M150.1 107.408C151.385 111.103 149.885 117.101 149.188 119.784C148.491 122.468 148.277 125.676 148.277 125.676C145.547 126.104 143.565 125.569 143.565 125.569L144.69 120.053C143.886 116.786 144.69 108.056 144.69 108.056C144.69 108.056 142.869 104.682 142.708 99.541C142.545 94.4814 141.303 92.8448 141.264 92.7943C138.694 94.1329 135.427 108.486 135.427 108.486C135.694 111.966 135.372 117.322 134.302 120.211C133.652 122.047 133.379 123.996 133.499 125.94C133.125 126.266 132.604 126.311 132.034 126.22C130.505 125.972 128.671 124.655 128.671 124.655C128.671 124.655 129.259 109.022 129.689 108.429C130.119 107.836 129.689 104.465 129.689 104.465L130.384 99.0036C130.384 99.0036 130.277 89.7377 131.294 88.132C132.174 86.7446 132.376 84.3051 132.415 83.6652C132.415 83.5642 132.415 83.5023 132.415 83.5023L133.965 81.6459C133.965 81.6459 148.96 80.5206 150.087 81.6459C150.362 81.9211 150.533 82.5497 150.634 83.3395C150.943 85.7691 150.588 89.7312 150.588 89.7312C150.588 89.7312 150.139 92.677 149.496 95.675C149.11 97.4758 149.11 99.3378 149.496 101.139C149.289 103.248 149.494 105.377 150.1 107.408Z" fill="#65617D"/>
<path opacity="0.1" d="M135.426 108.48C135.693 111.96 135.37 117.316 134.3 120.204C133.651 122.041 133.378 123.989 133.498 125.933C133.123 126.259 132.602 126.305 132.032 126.214C132.358 123.955 133.732 114.223 134.613 106.534C135.618 97.7774 140.313 91.7537 140.313 91.7537L141.249 92.7845C138.692 94.1264 135.426 108.48 135.426 108.48Z" fill="black"/>
<path d="M147.554 52.1936L146.903 55.4066L143.7 60.7886L139.751 59.1016C139.751 59.1016 134.377 53.4785 137.756 52.6757C138.16 52.5888 138.541 52.4191 138.876 52.1774C139.539 51.6774 139.747 50.9511 139.751 50.2395C139.726 49.4432 139.541 48.6602 139.207 47.9369L146.115 45.7678C145.833 46.6755 145.668 47.6158 145.626 48.5654C145.572 50.4479 146.278 51.3745 146.846 51.8224C147.056 51.9909 147.296 52.117 147.554 52.1936Z" fill="#FBBEBE"/>
<path opacity="0.1" d="M146.108 45.7678C145.826 46.6755 145.662 47.6158 145.62 48.5654C145.494 48.7156 145.359 48.8586 145.217 48.9937C144.504 49.6749 143.62 50.1504 142.658 50.3697C141.697 50.589 140.694 50.544 139.756 50.2395C139.729 49.4429 139.542 48.6598 139.207 47.9369L146.108 45.7678Z" fill="black"/>
<path d="M146.902 44.8835C146.902 45.9642 146.582 47.0206 145.982 47.9193C145.381 48.818 144.528 49.5185 143.53 49.9323C142.532 50.346 141.433 50.4545 140.373 50.2439C139.313 50.0332 138.34 49.513 137.575 48.749C136.811 47.985 136.291 47.0115 136.08 45.9516C135.869 44.8918 135.977 43.7932 136.39 42.7948C136.804 41.7963 137.504 40.943 138.403 40.3426C139.301 39.7422 140.357 39.4217 141.438 39.4217C142.156 39.4182 142.868 39.5572 143.533 39.8304C144.197 40.1036 144.8 40.5058 145.308 41.0136C145.816 41.5215 146.219 42.125 146.492 42.7892C146.766 43.4534 146.905 44.1652 146.902 44.8835Z" fill="#FBBEBE"/>
<path opacity="0.1" d="M147.554 52.1937L146.903 55.4066L143.7 60.7887L139.751 59.1016C139.751 59.1016 134.377 53.4785 137.756 52.6757C138.16 52.5888 138.541 52.4191 138.876 52.1774C138.267 53.8514 140.781 57.3347 140.781 57.3347C141.075 57.7663 141.746 57.4976 141.746 57.4976C143.366 57.2517 146.348 52.5927 146.834 51.8175C147.047 51.9891 147.292 52.1169 147.554 52.1937Z" fill="black"/>
<path opacity="0.1" d="M150.647 83.3427C149.696 83.5593 144.434 84.7237 142.439 84.4322C140.244 84.1065 135.976 83.898 135.976 83.898C135.976 83.898 133.258 84.0446 132.421 83.6619C132.421 83.5609 132.421 83.4991 132.421 83.4991L133.971 81.6426C133.971 81.6426 148.966 80.5173 150.093 81.6426C150.375 81.9243 150.546 82.5529 150.647 83.3427Z" fill="black"/>
<path d="M140.78 57.4959C140.78 57.4959 137.955 53.5876 139.02 52.0568L134.247 54.011C134.247 54.011 131.374 53.6625 130.338 57.9502C130.173 58.6628 130.113 59.3958 130.161 60.1258C130.2 60.7772 130.112 61.9171 129.374 63.3828C128.197 65.7391 128.464 71.1489 130.874 71.6879C133.284 72.2269 134.139 71.955 134.139 71.955C134.139 71.955 133.814 81.755 132.426 82.8803C131.039 84.0056 135.976 83.7369 135.976 83.7369C135.976 83.7369 140.244 83.9518 142.441 84.2726C144.638 84.5934 150.795 83.1474 150.795 83.1474C150.795 83.1474 149.885 79.0241 149.562 76.4007C149.24 73.7772 148.489 68.1883 148.489 68.1883L153.951 60.7886C153.951 60.7886 154.915 56.3169 151.541 54.335C148.167 52.3532 146.898 51.8679 146.898 51.8679C146.898 51.8679 143.508 57.3884 141.741 57.6555C141.744 57.6555 141.073 57.9258 140.78 57.4959Z" fill="#2C7A7B"/>
<path opacity="0.1" d="M134.514 59.0478C134.514 59.0478 134.462 60.8163 134.783 61.5116C135.103 62.207 136.282 66.0713 136.282 66.0713H133.604C133.604 66.0713 135.05 64.5178 134.944 63.7671C134.838 63.0163 134.514 59.0478 134.514 59.0478Z" fill="black"/>
<path d="M142.441 72.3832C142.441 72.3832 136.526 70.9372 135.976 69.7061C135.426 68.4749 133.906 65.718 133.906 65.718L134.53 64.8777L137.406 67.1347C137.406 67.1347 140.826 69.8656 142.441 70.1343C144.056 70.403 142.441 72.3832 142.441 72.3832Z" fill="#FBBEBE"/>
<path opacity="0.05" d="M142.441 72.3832C142.441 72.3832 136.526 70.9372 135.976 69.7061C135.426 68.4749 133.906 65.718 133.906 65.718L134.53 64.8777L137.406 67.1347C137.406 67.1347 140.826 69.8656 142.441 70.1343C144.056 70.403 142.441 72.3832 142.441 72.3832Z" fill="black"/>
<path d="M147.554 65.4216V68.6296H147.04C144.492 68.6291 141.985 69.2781 139.757 70.5154L138.79 71.0511L138.531 71.1961L136.87 67.4506L138.424 66.0583H138.503C138.883 66.0958 140.526 66.2325 141.223 65.998C141.884 65.7733 142.705 65.0617 144.653 65.5584C145.612 65.8043 146.432 66.879 147.362 66.5436L147.554 65.4216Z" fill="#FBBEBE"/>
<path opacity="0.1" d="M152.723 59.5787L153.793 60.7838V63.7036C153.793 63.7036 152.883 72.9141 149.992 73.9319C147.102 74.9497 141.938 73.3424 141.938 73.3424C141.938 73.3424 140.604 69.8087 141.228 69.597C141.852 69.3853 146.74 68.0923 146.74 68.0923C146.74 68.0923 146.672 62.6891 147.742 61.0818C147.742 61.0818 147.046 56.0482 149.456 55.9407C151.867 55.8333 152.723 59.5787 152.723 59.5787Z" fill="black"/>
<path d="M152.886 59.5787L153.957 60.7838V63.7036C153.957 63.7036 153.047 72.9141 150.155 73.9319C147.263 74.9497 142.101 73.3424 142.101 73.3424C142.101 73.3424 140.767 69.8087 141.392 69.597C142.018 69.3853 146.904 68.0923 146.904 68.0923C146.904 68.0923 146.834 62.6891 147.906 61.0818C147.906 61.0818 147.209 56.0482 149.619 55.9407C152.029 55.8333 152.886 59.5787 152.886 59.5787Z" fill="#2C7A7B"/>
<path opacity="0.1" d="M145.403 47.2024C145.449 46.8497 145.407 46.491 145.281 46.1585C145.13 45.8328 144.776 45.5869 144.431 45.67C143.973 45.7775 143.78 46.3735 143.327 46.5168C142.947 46.6373 142.534 46.3686 142.35 46.0152C142.166 45.6618 142.164 45.2466 142.164 44.8493C142.164 44.4031 142.164 43.9552 142.164 43.5074C142.164 43.0189 142.148 42.4945 141.848 42.1118C141.475 41.6363 140.598 41.4279 140.011 41.4474C139.621 41.4518 139.247 41.6023 138.963 41.8692C138.65 42.1362 138.287 42.3317 137.86 42.2616C137.682 42.2351 137.516 42.1585 137.38 42.0409C137.243 41.9233 137.144 41.7694 137.092 41.5972V41.5809C137.546 40.9769 138.121 40.4737 138.78 40.1032C139.438 39.7327 140.167 39.5031 140.919 39.4287C141.671 39.3544 142.431 39.437 143.15 39.6713C143.868 39.9056 144.53 40.2865 145.094 40.79C145.658 41.2934 146.111 41.9084 146.425 42.596C146.739 43.2837 146.907 44.029 146.918 44.7848C146.929 45.5406 146.783 46.2904 146.489 46.9869C146.195 47.6833 145.76 48.3112 145.211 48.8308C145.305 48.292 145.369 47.7483 145.403 47.2024Z" fill="black"/>
<path d="M137.86 42.1037C137.682 42.0764 137.515 41.9994 137.379 41.8816C137.243 41.7637 137.143 41.6099 137.09 41.4377C137.046 41.2651 137.057 41.081 137.007 40.91C136.881 40.4883 136.432 40.2701 136.131 39.9493C135.528 39.3093 135.567 38.2573 135.994 37.487C136.339 36.8666 137.007 36.3471 137.707 36.4644C138.14 36.5393 138.521 36.847 138.954 36.8764C139.388 36.9057 139.769 36.6663 140.148 36.4904C141.079 36.068 142.125 35.975 143.115 36.2266C143.419 36.2876 143.7 36.43 143.929 36.6386C144.085 36.8344 144.23 37.0382 144.364 37.2493C144.863 37.8844 145.757 38.0098 146.553 38.1531C147.349 38.2964 148.25 38.6123 148.507 39.3777C148.681 39.8857 148.507 40.4362 148.413 40.9638C148.381 41.0715 148.389 41.1867 148.434 41.2895C148.559 41.4947 148.87 41.4084 149.105 41.4523C149.556 41.5484 149.671 42.1298 149.689 42.5922C149.708 43.1199 149.722 43.648 149.732 44.1767C149.745 44.3734 149.729 44.5709 149.684 44.763C149.587 45.0382 149.432 45.2896 149.23 45.5007L147.462 47.6258C146.677 48.5671 145.844 49.6646 145.996 50.8827C145.625 51.0456 145.182 50.728 145.061 50.3388C144.941 49.9496 145.037 49.5246 145.12 49.1321C145.264 48.4423 145.359 47.7429 145.403 47.0396C145.449 46.6874 145.407 46.3293 145.281 45.9974C145.13 45.6717 144.776 45.4258 144.431 45.5088C143.972 45.6163 143.78 46.2123 143.327 46.3556C142.947 46.4761 142.534 46.2074 142.35 45.854C142.166 45.5007 142.164 45.087 142.164 44.6897V43.3462C142.164 42.8577 142.148 42.3333 141.848 41.9506C141.475 41.4751 140.598 41.2667 140.011 41.2862C139.622 41.291 139.248 41.4415 138.964 41.708C138.65 41.9767 138.287 42.1737 137.86 42.1037Z" fill="#7C5C5C"/>
<path opacity="0.1" d="M139.093 58.9142L140.77 65.8042C140.77 65.8042 142.092 65.7961 139.093 58.9142Z" fill="black"/>
<path opacity="0.1" d="M144.824 57.763C144.824 57.763 142.628 61.3586 143.485 65.078L143.894 65.1073C143.894 65.1073 143.164 63.3861 144.824 57.763Z" fill="black"/>
<path opacity="0.1" d="M146.209 78.1138C146.209 78.1138 148.906 77.2214 149.101 79.2911C149.108 79.2911 148.6 77.8728 146.209 78.1138Z" fill="black"/>
<path opacity="0.1" d="M138.424 66.2244C138.424 66.2244 137.888 69.9699 138.852 71.4729C138.852 71.4729 136.898 72.2757 134.139 72.1162L133.813 66.2244H138.424Z" fill="black"/>
<path opacity="0.1" d="M138.79 71.0512L138.531 71.1961L136.87 67.4506L138.424 66.0583H138.503C138.479 66.2439 138.046 69.4634 138.79 71.0512Z" fill="black"/>
<path d="M138.424 66.0649C138.424 66.0649 137.888 69.8103 138.852 71.3118C138.852 71.3118 136.898 72.1162 134.139 71.955L132.265 66.0649H138.424Z" fill="#2C7A7B"/>
<g opacity="0.1">
<path opacity="0.1" d="M148.405 41.0387V41.0126C148.481 40.612 148.597 40.1984 148.568 39.7962C148.533 40.1249 148.479 40.4512 148.405 40.7733C148.385 40.8606 148.385 40.9513 148.405 41.0387Z" fill="black"/>
<path opacity="0.1" d="M145.28 46.0511C145.365 46.2441 145.41 46.4524 145.411 46.6634C145.436 46.3725 145.39 46.0801 145.28 45.8101C145.13 45.4844 144.776 45.2385 144.431 45.3215C143.972 45.429 143.78 46.025 143.325 46.1683C142.948 46.2888 142.534 46.0201 142.348 45.6668C142.163 45.3134 142.163 44.8981 142.163 44.5008C142.163 44.053 142.163 43.6068 142.163 43.1589C142.163 42.6704 142.146 42.146 141.847 41.7633C141.472 41.2862 140.596 41.0794 140.01 41.0973C139.62 41.1023 139.245 41.2534 138.961 41.5207C138.647 41.7878 138.285 41.9832 137.857 41.9132C137.679 41.886 137.513 41.8093 137.377 41.6918C137.241 41.5742 137.141 41.4206 137.088 41.2488C137.044 41.0761 137.056 40.8905 137.005 40.7195C136.88 40.2994 136.431 40.0795 136.129 39.7603C135.847 39.447 135.687 39.0423 135.678 38.6204C135.656 38.8679 135.685 39.1173 135.762 39.3534C135.84 39.5894 135.965 39.8071 136.129 39.9932C136.431 40.3189 136.88 40.5322 137.005 40.9524C137.056 41.1152 137.044 41.309 137.088 41.4816C137.141 41.6535 137.241 41.8071 137.377 41.9246C137.513 42.0422 137.679 42.1189 137.857 42.146C138.285 42.2161 138.647 42.0206 138.961 41.7536C139.245 41.4862 139.62 41.3352 140.01 41.3302C140.596 41.3123 141.475 41.5191 141.847 41.9962C142.146 42.3789 142.161 42.9049 142.163 43.3918C142.163 43.8396 142.163 44.2858 142.163 44.7336C142.163 45.131 142.163 45.5479 142.348 45.898C142.534 46.2481 142.943 46.5217 143.325 46.4012C143.775 46.2579 143.977 45.6619 144.431 45.5544C144.776 45.4795 145.13 45.7368 145.28 46.0511Z" fill="black"/>
<path opacity="0.1" d="M149.681 44.5773C149.583 44.8522 149.428 45.1031 149.225 45.3134L147.457 47.4385C146.712 48.3325 145.926 49.3682 145.991 50.5098C146.045 49.4627 146.774 48.51 147.457 47.6795L149.225 45.5544C149.428 45.3442 149.583 45.0932 149.681 44.8183C149.725 44.6257 149.741 44.4277 149.728 44.2305C149.726 44.3475 149.71 44.4639 149.681 44.5773Z" fill="black"/>
<path opacity="0.1" d="M145.069 50.1515C145.04 50.0584 145.022 49.9622 145.016 49.8649C145.001 50.0426 145.019 50.2215 145.069 50.3925C145.19 50.7801 145.631 51.1009 146.004 50.9348C145.994 50.857 145.987 50.7788 145.985 50.7003C145.613 50.8485 145.183 50.5326 145.069 50.1515Z" fill="black"/>
</g>
<path opacity="0.1" d="M149.509 101.142C149.509 101.142 148.273 101.914 148.234 102.355C148.194 102.796 148.872 102.029 148.872 102.029L149.509 101.142Z" fill="black"/>
<path opacity="0.1" d="M149.997 107.063C149.567 107.421 149.033 107.629 148.474 107.657C147.55 107.698 147.628 108.903 148.232 108.541C148.836 108.18 149.997 107.063 149.997 107.063Z" fill="black"/>
<path opacity="0.1" d="M150.232 107.836C150.232 107.836 149.639 110.75 149.157 110.188L150.232 107.836Z" fill="black"/>
<path d="M35.7154 129.671C35.7154 129.671 39.4364 130.692 41.2277 129.334C43.019 127.975 43.7958 128.412 43.7958 128.412C43.7958 128.412 48.0672 128.176 48.419 127.166C48.7707 126.156 46.7808 122.489 46.7808 122.489C46.6391 122.164 46.4323 121.75 46.3394 121.75L46.359 120.203L46.9778 113.73C48.406 110.067 47.0039 105.335 47.0039 105.335L46.7482 104.161C46.6045 103.501 46.6901 102.812 46.9908 102.207L49.585 96.9957C49.7238 96.6512 49.887 96.3171 50.0735 95.9959C50.2363 95.6979 50.4529 95.3298 50.7249 94.8885C50.8047 94.7615 50.8877 94.6296 50.9789 94.4912C51.2932 94.0026 51.6743 93.449 52.1351 92.8106C53.2832 91.2196 53.8873 89.228 54.2 87.7624L54.3384 88.2216H54.3466H54.3694L54.4068 88.2298H54.4589H54.4687L54.5355 88.2412H54.5599L55.3578 98.3962C55.4067 102.357 56.8609 104.549 56.8609 104.549L56.6606 113.292C56.9342 115.397 56.3349 118.205 56.0597 119.325L55.4311 120.744C55.1836 120.867 54.9699 121.049 54.8085 121.274C54.6471 121.499 54.5427 121.759 54.5045 122.033C54.3808 123.08 53.2783 125.337 53.2783 125.337C52.8516 125.878 51.925 127.339 51.925 127.339C51.925 127.339 51.4886 128.749 51.7589 129.277C52.0293 129.804 54.2896 129.75 54.2896 129.75C56.8707 130.322 58.8492 128.936 58.7238 127.982C58.5985 127.028 59.1261 126.785 59.1261 126.785C60.152 126.459 60.0527 125.764 60.0527 125.764C60.2735 124.33 59.9996 122.863 59.2759 121.605L59.1131 121.981C59.069 121.228 59.1742 120.474 59.4225 119.762L59.328 119.827L59.2987 119.845H59.2889C59.4518 118.416 60.9516 115.773 60.9516 115.773C63.7069 110.94 62.7054 104.391 62.7054 104.391L62.2788 102.348L62.2543 101.578C62.196 99.7393 62.3352 97.8995 62.6696 96.0903C62.8178 95.2891 62.9709 94.3218 63.0881 93.2552C63.3356 91.0014 64.1336 88.676 64.5016 87.6907L64.6107 87.6712H64.6237C64.7736 87.6451 64.925 87.6191 65.0781 87.5898H65.1074C65.1074 87.5898 65.1953 87.1143 65.2702 86.3049C65.3142 85.7887 65.35 85.1341 65.35 84.3817C65.3611 82.1101 65.0143 79.8509 64.3225 77.6871L64.4055 77.5683C64.4055 77.5683 64.6026 77.3012 64.9625 76.8387C65.6236 75.9984 66.6528 74.7217 67.9214 73.2822C70.1931 70.6913 69.5254 68.0711 69.5254 68.0711C69.5254 68.0711 67.8807 62.0442 67.1479 58.4258C66.7293 56.3641 65.9444 54.962 65.3435 54.1348C65.479 53.5644 65.5554 52.9816 65.5715 52.3956C65.6204 51.3241 65.5829 50.2069 65.1009 49.2445C64.6189 48.2821 63.5929 47.5216 62.5214 47.6503C62.3694 47.6869 62.2109 47.6869 62.0589 47.6503C61.9337 47.5935 61.8278 47.5012 61.7544 47.3848C61.1274 46.5201 61.0867 45.3574 61.2822 44.3087C61.4776 43.26 61.8782 42.2568 62.0573 41.2048C62.2364 40.1529 62.155 38.9853 61.4857 38.1515C60.6992 37.1744 59.328 36.8992 58.3053 36.1648C57.5872 35.6485 57.0482 34.9076 56.2909 34.45C55.5337 33.9924 54.8253 34.1667 54.003 34.3393C52.6204 34.6308 51.3062 34.7643 49.9986 35.3587C48.6745 35.9583 47.4869 36.8222 46.5088 37.8974C46.1616 38.244 45.8957 38.6634 45.7304 39.1253C45.4047 40.2017 46.0414 41.3481 45.9079 42.462C45.8135 43.2518 45.3477 43.939 44.9781 44.6441C44.6084 45.3493 44.3267 46.1863 44.6165 46.924C45.0725 48.0769 46.5593 48.3212 47.6406 48.9351C47.7851 49.0058 47.9086 49.113 47.9988 49.2462C48.2659 49.7119 47.7204 50.1955 47.3768 50.6092C47.1801 50.8505 47.0409 51.1334 46.9697 51.4364C46.5221 51.6201 46.1265 51.9111 45.8178 52.2837C45.5091 52.6562 45.2968 53.099 45.1995 53.573C44.8331 55.2128 45.3966 57.2826 45.8933 58.6505C45.351 61.6973 46.0561 62.8991 46.5756 63.36C47.1015 63.8104 47.4271 64.4512 47.481 65.1415V65.1985C47.5152 65.7522 47.5738 66.3042 47.652 66.8546C47.6341 66.726 47.6162 66.5892 47.6064 66.529C47.1814 67.3155 46.372 69.325 45.916 72.7057C45.8212 73.4302 45.6836 74.1486 45.504 74.8569C45.1779 76.1112 45.0612 77.4109 45.1588 78.7033L45.2402 79.7992C45.1601 79.8013 45.0819 79.7753 45.0188 79.726L45.5904 80.7731V82.5399C45.5897 83.3367 45.4429 84.1265 45.1572 84.8703C45.1165 84.9777 45.0725 85.0852 45.0253 85.1959C44.8784 85.4934 44.8122 85.8241 44.8331 86.1551C43.6036 88.0392 40.7848 98.5981 40.7848 98.5981C39.2557 102.06 40.9102 104.298 40.9102 104.298C40.9102 104.298 41.7114 113.937 41.8612 114.435C42.011 114.933 42.3432 120.809 42.3432 120.809C42.3432 120.963 42.3432 121.125 42.3432 121.276C42.2543 121.237 42.1607 121.21 42.0648 121.196C40.7245 121.121 40.3614 123.238 40.3614 123.238L37.6191 125.857C37.6191 125.857 36.3668 125.645 34.525 127.028C32.6832 128.41 35.7154 129.671 35.7154 129.671ZM63.0979 73.9629L63.0897 73.9335L63.0148 73.9775L62.9839 73.9954L62.9692 74.0052L61.7055 69.5449C61.3673 68.349 61.3354 67.0873 61.6127 65.8759L62.5898 61.5964V60.5672L65.6953 68.843C65.8939 69.9585 64.0489 72.6601 63.0979 73.9629Z" fill="url(#paint3_linear)"/>
<path d="M64.4608 87.4253C64.4608 87.4253 63.2069 90.4754 62.8877 93.4017C62.7721 94.457 62.6223 95.4112 62.4757 96.2027C62.1504 97.9893 62.0161 99.8055 62.0751 101.621L62.0996 102.381L62.5067 104.395C62.5067 104.395 63.4838 110.865 60.7854 115.632C60.7854 115.632 59.1862 118.486 59.1374 119.838L58.0545 120.257L55.8658 119.643C55.8658 119.643 56.9227 115.853 56.5791 113.197L56.7761 104.566C56.7761 104.566 55.3545 102.407 55.3056 98.4988L54.4702 87.7738L64.4608 87.4253Z" fill="#FDC2CC"/>
<path d="M54.4703 85.8978C54.4703 85.8978 54.2016 90.0797 52.1335 92.9621C50.0653 95.8444 49.6256 97.0951 49.6256 97.0951L47.0787 102.244C46.7838 102.841 46.6994 103.52 46.8393 104.171L47.0901 105.33C47.0901 105.33 48.4678 110.004 47.0657 113.621L46.4013 120.607H42.5158C42.5158 120.607 42.1901 114.801 42.0484 114.309C41.9067 113.818 41.1137 104.298 41.1137 104.298C41.1137 104.298 39.4852 102.083 40.9899 98.6649C40.9899 98.6649 44.3853 85.8734 45.2939 86.0949C46.2026 86.3163 54.4703 85.8978 54.4703 85.8978Z" fill="#FDC2CC"/>
<g opacity="0.1">
<path opacity="0.1" d="M46.6959 105.338L46.4468 104.179C46.303 103.526 46.3869 102.843 46.6845 102.244L49.2314 97.0902C49.2314 97.0902 49.6727 95.8363 51.7392 92.9572C53.7243 90.1888 54.0517 86.2219 54.0745 85.9174L54.4702 85.8978C54.4702 85.8978 54.2015 90.0797 52.1333 92.9621C50.0652 95.8444 49.6255 97.0951 49.6255 97.0951L47.0786 102.244C46.7837 102.841 46.6993 103.52 46.8392 104.171L47.09 105.33C47.09 105.33 48.4677 110.004 47.0656 113.621L46.4012 120.607H46.0071L46.6715 113.621C48.0736 110.004 46.6959 105.338 46.6959 105.338Z" fill="black"/>
</g>
<path opacity="0.1" d="M58.7497 119.843C58.7986 118.491 60.3977 115.637 60.3977 115.637C63.1042 110.865 62.119 104.4 62.119 104.4L61.7021 102.384L61.6777 101.624C61.6187 99.8087 61.753 97.9926 62.0783 96.2059C62.2232 95.4145 62.3731 94.4602 62.4887 93.405C62.7965 90.5877 63.9706 87.6565 64.0569 87.4416L64.4607 87.4253C64.4607 87.4253 63.2068 90.4754 62.8877 93.4017C62.772 94.457 62.6222 95.4112 62.4757 96.2027C62.1503 97.9893 62.016 99.8055 62.0751 101.621L62.0995 102.381L62.5066 104.395C62.5066 104.395 63.4837 110.865 60.7853 115.632C60.7853 115.632 59.1862 118.486 59.1373 119.838L58.0544 120.257L57.8264 120.193L58.7497 119.843Z" fill="black"/>
<path d="M47.1145 78.4102H49.0263V67.563L47.5916 67.3057L47.1145 78.4102Z" fill="#FDC2CC"/>
<path opacity="0.05" d="M47.1145 78.4102H49.0263V67.563L47.5916 67.3057L47.1145 78.4102Z" fill="black"/>
<path d="M56.2077 35.3294C56.9519 35.7805 57.4811 36.5133 58.1862 37.023C59.1894 37.7477 60.5361 38.018 61.308 38.9853C61.9594 39.8093 62.0441 40.9606 61.8682 41.9996C61.6923 43.0385 61.2982 44.0302 61.1077 45.0659C60.9172 46.1016 60.9563 47.2497 61.5718 48.103C61.6433 48.2177 61.7469 48.3089 61.8698 48.3652C62.0192 48.4009 62.1748 48.4009 62.3242 48.3652C63.3761 48.2382 64.3858 48.9905 64.858 49.9399C65.3303 50.8893 65.3677 51.9934 65.3189 53.0519C65.2782 53.9199 65.1805 54.8057 64.7994 55.5874C64.148 56.9162 62.7931 57.737 61.4562 58.3655C60.5872 58.7741 59.6961 59.134 58.7871 59.4436C58.1618 59.6553 57.5023 59.8458 56.8525 59.7351C55.7403 59.5429 54.9521 58.5316 53.8969 58.1359C53.0322 57.8102 52.073 57.9275 51.1529 58.0089C50.368 58.0773 49.4707 58.0757 48.9301 57.5025C48.2364 56.7664 48.549 55.5793 48.904 54.6315C48.5281 54.6077 48.166 54.4804 47.8578 54.2637C47.5496 54.047 47.3073 53.7493 47.1577 53.4035C47.008 53.0578 46.9569 52.6774 47.0099 52.3044C47.0629 51.9314 47.218 51.5803 47.458 51.2899C47.7934 50.8812 48.3292 50.404 48.067 49.9432C47.979 49.8117 47.8576 49.7061 47.7153 49.637C46.6551 49.0312 45.1944 48.7886 44.7482 47.6519C44.4616 46.9207 44.7385 46.0935 45.1016 45.3981C45.4647 44.7028 45.9158 44.0221 46.0152 43.2437C46.1454 42.1429 45.5266 41.0111 45.8409 39.9493C46.0034 39.4933 46.2641 39.0786 46.6047 38.7345C47.5619 37.6748 48.7257 36.822 50.0244 36.2283C51.3093 35.6404 52.5974 35.5085 53.9555 35.2219C54.7697 35.0493 55.4439 34.8669 56.2077 35.3294Z" fill="#865A61"/>
<path d="M49.0246 51.7231C49.0246 51.7231 45.9094 51.5602 45.3199 54.2162C44.7304 56.8722 46.5982 60.6763 46.5982 60.6763L49.0246 51.7231Z" fill="#FDC2CC"/>
<path opacity="0.05" d="M49.0246 51.7231C49.0246 51.7231 45.9094 51.5602 45.3199 54.2162C44.7304 56.8722 46.5982 60.6763 46.5982 60.6763L49.0246 51.7231Z" fill="black"/>
<path d="M47.0364 59.6276L48.217 60.5623L53.7261 60.8082L57.1654 58.4469L60.6633 52.4445C58.5251 51.8989 57.6604 50.4219 57.338 49.041C57.1329 48.1064 57.1096 47.1411 57.2696 46.1977C57.2696 46.1977 51.6612 43.2942 52.35 47.8262C52.4445 48.3824 52.462 48.949 52.4021 49.51C52.0765 52.1644 49.5002 51.6644 49.5002 51.6644L48.5118 53.1887L47.38 56.9341L47.0364 59.6276Z" fill="#FDC2CC"/>
<path opacity="0.1" d="M52.3548 47.8196C52.4492 48.3759 52.4668 48.9425 52.4069 49.5035C53.1982 49.8649 54.0704 50.0125 54.9365 49.9313C55.8027 49.8502 56.6324 49.5432 57.3427 49.041C57.1376 48.1064 57.1144 47.1411 57.2743 46.1977C57.2743 46.1977 51.6659 43.2942 52.3548 47.8196Z" fill="black"/>
<path d="M54.4735 49.7558C57.2175 49.7558 59.442 47.5314 59.442 44.7874C59.442 42.0434 57.2175 39.819 54.4735 39.819C51.7296 39.819 49.5051 42.0434 49.5051 44.7874C49.5051 47.5314 51.7296 49.7558 54.4735 49.7558Z" fill="#FDC2CC"/>
<path d="M50.9593 58.6798C51.0798 58.6798 51.1987 58.6977 51.3176 58.7091C51.969 58.7743 54.6901 58.9208 56.2404 57.0693C57.9747 54.9979 60.2839 52.4396 60.3783 52.3354L62.7282 53.0454C62.7282 53.0454 60.8685 52.3842 59.6341 55.8431C59.3632 56.5685 59.3347 57.3623 59.5528 58.1053C59.771 58.8484 60.224 59.5007 60.844 59.9647C61.3005 60.2954 61.8262 60.5181 62.3813 60.6161C62.382 60.6173 62.3824 60.6187 62.3824 60.6201C62.3824 60.6216 62.382 60.623 62.3813 60.6242V62.1419L61.4205 66.3759C61.1475 67.5723 61.1789 68.8181 61.5117 69.9992L62.9773 75.1793C62.7559 75.3324 53.6626 81.5173 47.5884 77.2459C47.6112 77.0602 48.3619 70.9812 47.8408 68.006C47.707 67.2453 47.6162 66.4776 47.5689 65.7066C47.5689 65.6871 47.5689 65.6692 47.5689 65.6496C47.5151 64.969 47.195 64.337 46.6781 63.8909C46.1309 63.4024 45.39 62.0996 46.1228 58.657C46.3079 57.8044 46.5808 56.9733 46.937 56.1769L48.9742 51.5732L50.8518 51.6107V51.6237C50.689 51.8257 48.5117 54.5452 48.2756 56.2974C48.0444 57.9633 47.7594 58.4746 50.9593 58.6798Z" fill="#2C7A7B"/>
<path d="M64.3095 53.8547C64.3095 53.8547 66.1464 55.4294 66.8678 59.0039C67.5892 62.5784 69.1965 68.5157 69.1965 68.5157C69.1965 68.5157 69.8479 71.1066 67.6218 73.6649C65.3957 76.2232 63.9154 78.2246 63.9154 78.2246L62.4498 80.3839C62.1999 80.752 61.825 81.017 61.3946 81.1298C60.7269 81.3056 59.701 81.4326 58.8118 80.9457C58.4882 80.7649 58.2427 80.4709 58.1225 80.1202C58.0023 79.7694 58.0158 79.3867 58.1604 79.0453L58.4861 78.2913C58.4861 78.2913 55.4686 80.1934 55.2064 79.143C54.9442 78.0927 58.7157 77.0439 58.7157 77.0439C58.7157 77.0439 61.831 76.5196 62.4612 75.0442C62.4612 75.0442 65.806 70.7467 65.5439 69.2713L62.313 60.6128C62.313 60.6128 58.2728 60.0787 59.6505 55.5402C61.0282 51.0017 64.3095 53.8547 64.3095 53.8547Z" fill="#FDC2CC"/>
<path d="M44.9909 86.5214C44.9909 86.5214 52.371 87.9968 54.1102 87.7998L54.2975 88.4235C54.2975 88.4235 57.0984 89.0504 63.4315 88.0457C63.8451 87.9805 64.2745 87.9073 64.7196 87.8258L64.8678 87.7998C64.8678 87.7998 64.9541 87.3308 65.0225 86.5312C65.1739 84.7155 65.2277 81.1996 63.9493 77.6008L62.8843 74.321C62.8843 74.321 56.3021 78.2668 51.9444 77.9036C51.5552 77.8711 51.1692 77.8401 50.78 77.8271C49.886 77.7929 48.5002 77.8271 47.5996 77.1057L45.7106 77.4314V82.8053C45.71 83.5914 45.5654 84.3707 45.284 85.1047C45.2433 85.2122 45.2009 85.318 45.1537 85.4304C44.9804 85.7661 44.9231 86.1497 44.9909 86.5214Z" fill="#65617D"/>
<path opacity="0.1" d="M54.2961 86.7511V88.4235C54.2961 88.4235 57.5205 89.1449 64.8664 87.7998C64.8664 87.7998 64.9528 87.3308 65.0212 86.5312C62.7674 86.8928 56.5516 87.7624 54.2961 86.7511Z" fill="black"/>
<path opacity="0.1" d="M44.991 86.5215C44.991 86.5215 52.3711 87.9969 54.1103 87.7998L54.2976 88.4235V86.7511C53.4573 87.0996 47.4581 85.6535 45.2841 85.1113C45.2434 85.2187 45.201 85.3246 45.1538 85.437C44.9819 85.7708 44.9247 86.1519 44.991 86.5215Z" fill="black"/>
<path d="M62.8828 84.6569L63.43 88.0506C63.8436 87.9855 64.273 87.9122 64.7181 87.8308C64.5471 86.839 64.1742 84.5738 64.2768 84.1977L63.5879 83.6082L62.8828 84.6569Z" fill="#65617D"/>
<path opacity="0.1" d="M62.9592 84.5836L63.5064 87.979C63.92 87.9127 64.3494 87.8395 64.7945 87.7591C64.6235 86.7674 64.2506 84.5022 64.3532 84.126L63.6643 83.5349L62.9592 84.5836Z" fill="black"/>
<g opacity="0.05">
<path opacity="0.05" d="M51.5488 77.902C51.1612 77.8695 50.7736 77.8385 50.3844 77.8255C49.5148 77.7929 48.1876 77.8255 47.2822 77.1595L47.5981 77.1041C48.5036 77.8222 49.878 77.7913 50.7785 77.8255C51.1677 77.8385 51.5537 77.8695 51.9429 77.902C52.0699 77.9134 52.2002 77.9199 52.3321 77.9232C52.0708 77.9302 51.8093 77.9231 51.5488 77.902Z" fill="black"/>
<path opacity="0.05" d="M63.036 88.0457C63.4496 87.9806 63.879 87.9078 64.3241 87.8275L64.4739 87.7998C64.4739 87.7998 64.5602 87.3308 64.627 86.5313C64.78 84.7155 64.8338 81.1997 63.5538 77.6008L62.5507 74.5068C62.764 74.3862 62.8764 74.3162 62.8764 74.3162L63.9414 77.5959C65.2197 81.1948 65.166 84.7106 65.0145 86.5264C64.9461 87.3259 64.8598 87.7949 64.8598 87.7949L64.7116 87.8226C64.2676 87.903 63.8383 87.9757 63.4235 88.0408C60.4646 88.5098 58.2793 88.6238 56.7876 88.6108C58.8816 88.579 60.9702 88.3901 63.036 88.0457Z" fill="black"/>
<path opacity="0.05" d="M53.7129 87.7998V87.8177H53.5012C53.5816 87.8123 53.6521 87.8063 53.7129 87.7998Z" fill="black"/>
</g>
<path d="M63.7995 85.2904C63.9533 85.2904 64.078 85.0338 64.078 84.7172C64.078 84.4006 63.9533 84.144 63.7995 84.144C63.6457 84.144 63.521 84.4006 63.521 84.7172C63.521 85.0338 63.6457 85.2904 63.7995 85.2904Z" fill="#D39999"/>
<path d="M46.0267 73.1096C46.4762 69.7712 47.2693 67.7878 47.6878 67.011C47.7041 67.1168 47.7464 67.4604 47.7659 67.5663C47.8506 68.0548 47.7757 68.6704 47.8018 69.2908L47.3849 76.8404L47.9434 79.2016C48.4678 81.0711 46.5251 79.5941 46.5251 79.5941C46.1228 80.48 45.3851 80.3823 45.3851 80.3823L45.2842 79.0274C45.1885 77.751 45.303 76.4675 45.6229 75.2282C45.7995 74.5306 45.9343 73.8232 46.0267 73.1096Z" fill="#FDC2CC"/>
<path opacity="0.05" d="M46.0267 73.1096C46.4762 69.7712 47.2693 67.7878 47.6878 67.011C47.7041 67.1168 47.7464 67.4604 47.7659 67.5663C47.8506 68.0548 47.7757 68.6704 47.8018 69.2908L47.3849 76.8404L47.9434 79.2016C48.4678 81.0711 46.5251 79.5941 46.5251 79.5941C46.1228 80.48 45.3851 80.3823 45.3851 80.3823L45.2842 79.0274C45.1885 77.751 45.303 76.4675 45.6229 75.2282C45.7995 74.5306 45.9343 73.8232 46.0267 73.1096Z" fill="black"/>
<path d="M64.7182 77.1823C64.3648 77.6399 64.171 77.9021 64.171 77.9021L62.7054 80.0598C62.456 80.4284 62.0809 80.6936 61.6502 80.8056C60.9825 80.9815 59.9566 81.1101 59.0674 80.6216C58.7437 80.4413 58.498 80.1476 58.3778 79.7971C58.2575 79.4465 58.2712 79.0639 58.4161 78.7228L58.7418 77.9672C58.7418 77.9672 55.7242 79.8693 55.462 78.8205C55.1999 77.7718 58.9714 76.7215 58.9714 76.7215C58.9714 76.7215 62.0866 76.1971 62.7168 74.7201C62.7168 74.7201 62.9888 74.3716 63.3682 73.8375" fill="#FDC2CC"/>
<path d="M62.8829 80.7991C62.8829 80.7991 59.315 80.4522 58.1848 78.4117L57.667 80.0972C57.667 80.0972 61.4124 82.6832 62.2674 82.3477L62.8829 80.7991Z" fill="#65617D"/>
<path opacity="0.1" d="M62.7558 80.7828C62.7558 80.7828 59.1895 80.4359 58.0577 78.3939L57.5415 80.0744C57.5415 80.0744 61.287 82.6604 62.1403 82.3249L62.7558 80.7828Z" fill="black"/>
<path d="M46.6421 79.8466C46.6421 79.8466 45.3931 80.2895 45.1472 80.0436L45.709 81.0776L46.7708 80.2634L46.6421 79.8466Z" fill="#65617D"/>
<path opacity="0.1" d="M46.6421 79.8466C46.6421 79.8466 45.3931 80.2895 45.1472 80.0436L45.709 81.0776L46.7708 80.2634L46.6421 79.8466Z" fill="black"/>
<path opacity="0.1" d="M54.2959 86.7511V84.5934L53.783 86.8032L54.2959 86.7511Z" fill="black"/>
<path opacity="0.1" d="M59.3556 42.1639C59.0543 42.5873 58.5316 42.8023 58.017 42.8691C57.5024 42.9358 56.9813 42.8788 56.4618 42.8691C55.6476 42.856 54.7813 42.9814 54.1152 43.4602C53.6902 43.7647 53.371 44.193 53.0388 44.6001C52.0324 45.8296 50.6352 46.9809 49.0491 46.8522C48.911 46.8523 48.7742 46.8246 48.647 46.7709C48.5197 46.7172 48.4045 46.6385 48.3081 46.5396C48.1789 46.3389 48.1131 46.104 48.1192 45.8654C48.051 44.8518 48.0832 43.834 48.2153 42.8267C48.2789 42.2033 48.4337 41.5927 48.6745 41.0142C48.9581 40.4344 49.3307 39.9026 49.7786 39.4379C50.3205 38.8093 50.9736 38.286 51.7051 37.8941C52.4443 37.5021 53.3007 37.3916 54.1152 37.5831C55.0646 37.842 55.8039 38.5846 56.7093 38.9673C57.7434 39.4021 60.489 40.5632 59.3556 42.1639Z" fill="black"/>
<path d="M59.3556 41.9668C59.0543 42.3902 58.5316 42.6052 58.017 42.6719C57.5024 42.7387 56.9813 42.6817 56.4618 42.6719C55.6476 42.6573 54.7813 42.7827 54.1152 43.2614C53.6902 43.566 53.371 43.9942 53.0388 44.4014C52.0324 45.6308 50.6352 46.7822 49.0491 46.6535C48.9109 46.6539 48.7741 46.6264 48.6468 46.5727C48.5195 46.519 48.4043 46.4401 48.3081 46.3408C48.1786 46.1403 48.1128 45.9053 48.1192 45.6667C48.051 44.6531 48.0832 43.6352 48.2153 42.628C48.2789 42.0046 48.4337 41.394 48.6745 40.8155C48.9577 40.2359 49.3303 39.7045 49.7786 39.2408C50.32 38.6112 50.9731 38.0873 51.7051 37.6954C52.4443 37.3033 53.3007 37.1928 54.1152 37.3844C55.0646 37.6433 55.8039 38.3859 56.7093 38.7685C57.7434 39.205 60.489 40.3628 59.3556 41.9668Z" fill="#865A61"/>
<path d="M47.5997 77.1025L47.5867 77.697L47.4531 77.1286L47.5997 77.1025Z" fill="#FDC2CC"/>
<path opacity="0.05" d="M47.5997 77.1025L47.5867 77.697L47.4531 77.1286L47.5997 77.1025Z" fill="black"/>
<g opacity="0.05">
<path opacity="0.05" d="M60.1583 55.229C58.779 59.7675 62.7996 60.3 62.7996 60.3L66.0305 68.9585C66.2927 70.4339 62.9462 74.7314 62.9462 74.7314C62.7133 75.2818 62.132 75.7003 61.4969 76.0097C61.868 75.7837 62.1664 75.4559 62.3567 75.0652C62.3567 75.0652 65.7016 70.7694 65.4394 69.294L62.2085 60.6339C62.2085 60.6339 58.1895 60.1014 59.5672 55.5628C60.028 54.0468 60.7071 53.3563 61.3943 53.1088C60.9204 53.4898 60.4856 54.1494 60.1583 55.229Z" fill="black"/>
</g>
<g opacity="0.1">
<path opacity="0.1" d="M60.2268 59.3523C60.4157 59.5859 60.6347 59.7935 60.8782 59.9695C61.3343 60.3008 61.8601 60.5236 62.4154 60.6209C62.4154 60.6209 62.4154 60.6209 62.4154 60.629V60.7919C61.9129 60.6854 61.4381 60.4752 61.0215 60.1747C60.7118 59.9477 60.4431 59.6696 60.2268 59.3523Z" fill="black"/>
<path opacity="0.1" d="M47.7334 65.845C47.7334 65.8629 47.7334 65.8825 47.7334 65.902C47.7842 66.6758 47.8777 67.4461 48.0135 68.2096C48.502 71.017 47.8621 76.5913 47.7709 77.3615C47.7188 77.3273 47.6667 77.2947 47.6081 77.2573C47.6325 77.0716 48.3832 70.9926 47.8621 68.019C47.7285 67.2583 47.6377 66.4906 47.5901 65.7196C47.5901 65.7001 47.5901 65.6806 47.5901 65.6626C47.5578 65.2158 47.4066 64.7856 47.1521 64.4169C47.4896 64.8209 47.6928 65.3201 47.7334 65.845Z" fill="black"/>
<path opacity="0.1" d="M50.7313 51.7947L49.1387 51.7638C49.1375 51.763 49.1361 51.7627 49.1346 51.7627C49.1332 51.7627 49.1318 51.763 49.1306 51.7638L47.095 56.3658C46.739 57.1623 46.4662 57.9934 46.2808 58.8459C45.688 61.6306 46.0609 63.018 46.5136 63.7036C46.0039 63.1027 45.4779 61.7332 46.1342 58.6554C46.316 57.8024 46.5861 56.9706 46.9403 56.1736L48.9905 51.5716L50.8681 51.6091V51.6205C50.8535 51.64 50.803 51.7019 50.7313 51.7947Z" fill="black"/>
<path opacity="0.1" d="M62.7329 53.0437L62.7606 53.0518L62.7329 53.0437Z" fill="black"/>
<path opacity="0.1" d="M62.1484 53.0177L60.5525 52.5373H60.5444C60.4499 52.6415 58.1424 55.1998 56.4081 57.2713C54.8578 59.1228 52.1399 58.9779 51.4852 58.9127C51.3664 58.8997 51.2459 58.8899 51.127 58.8818C49.3471 58.7678 48.6469 58.5561 48.4124 58.1067C48.7462 58.4323 49.4806 58.5952 50.9788 58.6864C51.0993 58.6864 51.2182 58.7043 51.3371 58.7157C51.9884 58.7808 54.7096 58.9258 56.2599 57.0758C57.9942 55.0028 60.3033 52.4445 60.3978 52.3403L62.72 53.0438C62.5331 52.9972 62.3387 52.9884 62.1484 53.0177Z" fill="black"/>
</g>
</g>
<defs>
<linearGradient id="paint0_linear" x1="78.4315" y1="115.671" x2="78.4315" y2="19.4145" gradientUnits="userSpaceOnUse">
<stop stop-color="#808080" stop-opacity="0.25"/>
<stop offset="0.54" stop-color="#808080" stop-opacity="0.12"/>
<stop offset="1" stop-color="#808080" stop-opacity="0.1"/>
</linearGradient>
<linearGradient id="paint1_linear" x1="22429.7" y1="77800.7" x2="22429.7" y2="17045.4" gradientUnits="userSpaceOnUse">
<stop stop-color="#808080" stop-opacity="0.25"/>
<stop offset="0.54" stop-color="#808080" stop-opacity="0.12"/>
<stop offset="1" stop-color="#808080" stop-opacity="0.1"/>
</linearGradient>
<linearGradient id="paint2_linear" x1="29735" y1="79202" x2="29735" y2="22976.8" gradientUnits="userSpaceOnUse">
<stop stop-color="#808080" stop-opacity="0.25"/>
<stop offset="0.54" stop-color="#808080" stop-opacity="0.12"/>
<stop offset="1" stop-color="#808080" stop-opacity="0.1"/>
</linearGradient>
<linearGradient id="paint3_linear" x1="-17031" y1="78530.2" x2="-17031" y2="22075.3" gradientUnits="userSpaceOnUse">
<stop stop-color="#808080" stop-opacity="0.25"/>
<stop offset="0.54" stop-color="#808080" stop-opacity="0.12"/>
<stop offset="1" stop-color="#808080" stop-opacity="0.1"/>
</linearGradient>
<clipPath id="clip0">
<rect width="185.266" height="140" fill="white"/>
</clipPath>
</defs>
</svg>
