<svg width="150" height="38" viewBox="0 0 150 38" fill="none" xmlns="http://www.w3.org/2000/svg">
<rect width="150" height="37.5" fill="#2C7A7B"/>
<path d="M20.0163 11.5748C20.0163 12.5014 19.6479 13.39 18.992 14.0451C18.3362 14.7003 17.4468 15.0684 16.5193 15.0684C15.5918 15.0684 14.7024 14.7003 14.0466 14.0451C13.3907 13.39 13.0223 12.5014 13.0223 11.5748C13.0223 10.6483 13.3907 9.75969 14.0466 9.10453C14.7024 8.44937 15.5918 8.0813 16.5193 8.0813C17.4468 8.0813 18.3362 8.44937 18.992 9.10453C19.6479 9.75969 20.0163 10.6483 20.0163 11.5748ZM25.8446 13.9039C25.8446 14.5215 25.599 15.1139 25.1618 15.5507C24.7246 15.9875 24.1316 16.2329 23.5133 16.2329C22.895 16.2329 22.302 15.9875 21.8648 15.5507C21.4276 15.1139 21.182 14.5215 21.182 13.9039C21.182 13.2862 21.4276 12.6938 21.8648 12.257C22.302 11.8202 22.895 11.5748 23.5133 11.5748C24.1316 11.5748 24.7246 11.8202 25.1618 12.257C25.599 12.6938 25.8446 13.2862 25.8446 13.9039ZM11.8566 13.9039C11.8566 14.5215 11.611 15.1139 11.1738 15.5507C10.7366 15.9875 10.1436 16.2329 9.52531 16.2329C8.90701 16.2329 8.31402 15.9875 7.87681 15.5507C7.43961 15.1139 7.19398 14.5215 7.19398 13.9039C7.19398 13.2862 7.43961 12.6938 7.87681 12.257C8.31402 11.8202 8.90701 11.5748 9.52531 11.5748C10.1436 11.5748 10.7366 11.8202 11.1738 12.257C11.611 12.6938 11.8566 13.2862 11.8566 13.9039ZM23.5133 25.549V22.0554C23.515 20.8714 23.214 19.7066 22.639 18.6714C23.1558 18.5392 23.696 18.5268 24.2183 18.6349C24.7407 18.7431 25.2314 18.969 25.6531 19.2954C26.0747 19.6219 26.4162 20.0402 26.6514 20.5185C26.8866 20.9968 27.0094 21.5225 27.0103 22.0554V25.549H23.5133ZM10.3996 18.6714C9.82459 19.7067 9.52368 20.8715 9.52531 22.0554V25.549H6.02832V22.0554C6.0281 21.5221 6.15009 20.9959 6.38495 20.5169C6.61981 20.038 6.96131 19.6192 7.38327 19.2925C7.80523 18.9659 8.29645 18.74 8.81928 18.6324C9.34212 18.5247 9.88269 18.538 10.3996 18.6714Z" fill="white"/>
<path fill-rule="evenodd" clip-rule="evenodd" d="M16.2387 23.5588C15.8601 23.4767 15.5255 23.2593 15.2992 22.9483C15.0729 22.6372 14.9708 22.2546 15.0126 21.8737C15.0544 21.4928 15.2371 21.1407 15.5256 20.8848C15.814 20.6289 16.188 20.4874 16.5756 20.4874C16.9633 20.4874 17.3372 20.6289 17.6257 20.8848C17.9142 21.1407 18.0969 21.4928 18.1386 21.8737C18.1804 22.2546 18.0784 22.6372 17.852 22.9483C17.6257 23.2593 17.2911 23.4767 16.9125 23.5588V29.0325H16.2387V23.5588ZM19.4953 25.481C18.3723 26.7021 17.5863 29.0325 17.5863 29.0325H15.5651C15.5651 29.0325 14.5317 26.7016 13.5436 25.4812C12.8847 24.667 10.8486 23.0396 10.8486 23.0396L12.3084 18.7512H20.7305L22.1902 23.0396C22.1902 23.0396 20.6183 24.2605 19.4953 25.4812V25.481Z" fill="white"/>
<path d="M47.6874 15.1155C47.2816 12.6209 46.0193 11.3585 43.9004 11.3285C43.1189 11.3285 42.4352 11.5088 41.8491 11.8695C41.263 12.2301 40.7746 12.711 40.3839 13.3121C40.0082 13.9132 39.7227 14.597 39.5273 15.3634C39.347 16.1298 39.2568 16.9188 39.2568 17.7303C39.2568 19.0227 39.4371 20.1723 39.7978 21.1791C40.1735 22.171 40.7145 22.9524 41.4208 23.5235C42.1271 24.0945 42.9837 24.38 43.9905 24.38C44.9373 24.38 45.8765 24.1396 46.8082 23.6587C47.74 23.1628 48.5214 22.479 49.1526 21.6074L50.2346 22.5993C49.4982 23.6061 48.7243 24.3725 47.9128 24.8985C47.1013 25.4094 46.3048 25.7551 45.5234 25.9354C44.757 26.1158 44.0657 26.2059 43.4495 26.2059C42.2924 26.2059 41.2405 26.003 40.2937 25.5973C39.347 25.1765 38.528 24.6055 37.8367 23.8841C37.1604 23.1478 36.6345 22.2987 36.2588 21.3369C35.8981 20.3601 35.7178 19.3082 35.7178 18.1811C35.7178 17.1592 35.8831 16.1449 36.2137 15.138C36.5443 14.1311 37.0327 13.222 37.6789 12.4105C38.3401 11.5839 39.1666 10.9302 40.1585 10.4493C41.1503 9.95343 42.2999 9.70547 43.6073 9.70547C44.1934 9.70547 44.8321 9.80315 45.5234 9.99851C46.2297 10.1788 46.8909 10.4493 47.507 10.81L47.4169 9.86326H49.1526V15.1155H47.6874Z" fill="white"/>
<path d="M56.8951 26.2059C55.8131 26.2059 54.8363 25.973 53.9647 25.5071C53.0931 25.0413 52.4018 24.38 51.8908 23.5235C51.3949 22.6519 51.147 21.63 51.147 20.4578C51.147 19.2105 51.4024 18.121 51.9134 17.1893C52.4394 16.2425 53.1306 15.5137 53.9872 15.0027C54.8588 14.4768 55.8056 14.2138 56.8274 14.2138C57.9094 14.2138 58.8787 14.4467 59.7353 14.9126C60.5919 15.3784 61.2681 16.0472 61.7641 16.9188C62.26 17.7754 62.5079 18.8048 62.5079 20.007C62.5079 21.2693 62.2675 22.3663 61.7866 23.2981C61.3057 24.2298 60.6445 24.9511 59.8029 25.462C58.9614 25.958 57.9921 26.2059 56.8951 26.2059ZM56.9852 24.6055C57.5863 24.5904 58.0372 24.38 58.3377 23.9743C58.6533 23.5686 58.8712 23.0576 58.9914 22.4415C59.1117 21.8253 59.1718 21.2017 59.1718 20.5705C59.1718 20.0145 59.1267 19.451 59.0365 18.8799C58.9614 18.3088 58.8337 17.7904 58.6533 17.3245C58.473 16.8587 58.225 16.483 57.9094 16.1974C57.6089 15.9119 57.2332 15.7767 56.7824 15.7917C56.1963 15.8067 55.7304 16.0171 55.3848 16.4229C55.0542 16.8286 54.8137 17.3396 54.6635 17.9557C54.5282 18.5568 54.4606 19.188 54.4606 19.8492C54.4606 20.6156 54.5432 21.367 54.7085 22.1033C54.8738 22.8397 55.1368 23.4483 55.4975 23.9292C55.8732 24.3951 56.3691 24.6205 56.9852 24.6055Z" fill="white"/>
<path d="M69.5275 26.0481L65.5151 13.9884C65.2897 13.3272 65.1094 12.7862 64.9741 12.3654C64.8539 11.9296 64.7712 11.5614 64.7262 11.2608C64.4857 11.2608 64.2603 11.2684 64.0499 11.2834C63.8395 11.2834 63.6291 11.2909 63.4188 11.3059V10.0661H69.2796V11.058C68.5131 11.088 68.0247 11.2533 67.8144 11.5539C67.619 11.8544 67.634 12.4255 67.8594 13.267C68.1149 14.2138 68.3779 15.1004 68.6484 15.927C68.9189 16.7384 69.1894 17.5875 69.4599 18.4742C69.6553 19.0903 69.8431 19.6689 70.0234 20.2099C70.2038 20.7358 70.3916 21.352 70.587 22.0583H70.6095C70.6997 21.7427 70.8124 21.352 70.9476 20.8861C71.0979 20.4052 71.2332 19.9469 71.3534 19.5111C71.4886 19.0753 71.5938 18.7522 71.669 18.5418C72.0296 17.3997 72.3828 16.2876 72.7284 15.2056C73.0741 14.1086 73.3896 13.1168 73.6752 12.2301C73.9757 11.3285 74.2011 10.5996 74.3514 10.0436H75.5236C75.6889 10.5996 75.8843 11.2533 76.1097 12.0047C76.3501 12.7411 76.5981 13.5075 76.8535 14.304C77.124 15.0854 77.3795 15.8443 77.62 16.5807C77.8604 17.302 78.0633 17.9332 78.2286 18.4742C78.4239 19.0903 78.6193 19.7139 78.8147 20.3451C79.01 20.9612 79.1979 21.5999 79.3782 22.2611H79.4233C79.5585 21.7953 79.7013 21.3144 79.8516 20.8185C80.0169 20.3075 80.1747 19.7966 80.3249 19.2856C80.7307 18.1135 81.0463 17.1592 81.2717 16.4229C81.4971 15.6715 81.685 15.0403 81.8352 14.5294C81.9855 14.0034 82.1433 13.5 82.3086 13.0191C82.3988 12.7336 82.504 12.433 82.6242 12.1174C82.7444 11.7868 82.8947 11.4938 83.075 11.2383C82.7895 11.2533 82.4814 11.2684 82.1508 11.2834C81.8352 11.2834 81.5497 11.2909 81.2942 11.3059V10.0661H86.028V11.058C85.5771 11.103 85.2014 11.2082 84.9009 11.3735C84.6154 11.5389 84.3599 11.8319 84.1345 12.2527C83.9091 12.6584 83.6536 13.267 83.3681 14.0785C82.7068 16.1073 82.0531 18.121 81.4069 20.1197C80.7758 22.1033 80.1221 24.0795 79.4458 26.0481H78.3187L75.1629 16.8286C74.9976 16.3778 74.8473 15.9345 74.7121 15.4987C74.5919 15.0629 74.4716 14.6271 74.3514 14.1912C74.126 15.0328 73.8856 15.8668 73.6301 16.6934L70.6321 26.0481H69.5275Z" fill="white"/>
<path d="M86.0003 24.8985C86.4512 24.8985 86.7667 24.7933 86.9471 24.5829C87.1274 24.3725 87.2326 24.0795 87.2626 23.7038C87.3077 23.3281 87.3303 22.8923 87.3303 22.3964V17.7077C87.3303 17.4673 87.3303 17.2118 87.3303 16.9413C87.3453 16.6708 87.3754 16.3928 87.4204 16.1073C87.165 16.1073 86.8945 16.1148 86.6089 16.1298C86.3234 16.1449 86.0604 16.1599 85.82 16.1749V14.9802H86.5864C87.2176 14.9802 87.6909 14.9126 88.0065 14.7773C88.3371 14.6421 88.5851 14.4993 88.7504 14.349H89.5619C89.5919 14.5594 89.6145 14.8525 89.6295 15.2282C89.6445 15.6039 89.6596 16.0246 89.6746 16.4905C90.0954 15.8744 90.6213 15.3409 91.2525 14.89C91.8837 14.4392 92.5599 14.2138 93.2813 14.2138C93.7471 14.2138 94.1454 14.3415 94.476 14.597C94.8216 14.8374 94.9944 15.2357 94.9944 15.7917C94.9944 16.0321 94.8967 16.3026 94.7014 16.6032C94.506 16.9038 94.1754 17.0465 93.7095 17.0315C93.394 17.0165 93.116 16.8962 92.8755 16.6708C92.6501 16.4454 92.5449 16.1373 92.5599 15.7466C92.1993 15.7466 91.8386 15.8593 91.4779 16.0847C91.1173 16.2951 90.7791 16.5807 90.4636 16.9413C90.148 17.302 89.8925 17.6927 89.6971 18.1135V23.0501C89.6971 23.3206 89.6896 23.5986 89.6746 23.8841C89.6746 24.1546 89.6521 24.4326 89.607 24.7182C89.8474 24.7031 90.0954 24.6956 90.3508 24.6956C90.6063 24.6806 90.8392 24.6656 91.0496 24.6505V25.8453H86.0003V24.8985Z" fill="white"/>
<path d="M96.1264 24.8985C96.5773 24.8985 96.8928 24.7933 97.0732 24.5829C97.2535 24.3725 97.3587 24.0795 97.3888 23.7038C97.4338 23.3281 97.4564 22.8923 97.4564 22.3964V17.7303C97.4564 17.4748 97.4639 17.2193 97.4789 16.9639C97.4939 16.7084 97.5165 16.4229 97.5465 16.1073C97.2911 16.1073 97.0206 16.1223 96.7351 16.1524C96.4495 16.1674 96.1865 16.1749 95.9461 16.1749V14.9802C96.953 14.9802 97.6668 14.9126 98.0875 14.7773C98.5083 14.6421 98.8014 14.4993 98.9667 14.349H99.8232V23.0501C99.8232 23.3206 99.8157 23.5986 99.8007 23.8841C99.7857 24.1546 99.7631 24.4326 99.7331 24.7182C99.9585 24.7031 100.199 24.6956 100.454 24.6956C100.71 24.6806 100.943 24.6656 101.153 24.6505V25.8453H96.1264V24.8985ZM98.5384 12.2752C98.1477 12.2752 97.817 12.1324 97.5465 11.8469C97.276 11.5464 97.1408 11.1857 97.1408 10.7649C97.1408 10.3441 97.2836 9.991 97.5691 9.70547C97.8546 9.40492 98.1777 9.25464 98.5384 9.25464C98.9291 9.25464 99.2522 9.40492 99.5077 9.70547C99.7782 9.991 99.9134 10.3441 99.9134 10.7649C99.9134 11.1857 99.7782 11.5464 99.5077 11.8469C99.2372 12.1324 98.9141 12.2752 98.5384 12.2752Z" fill="white"/>
<path d="M107.3 26.2059C106.924 26.2059 106.549 26.1533 106.173 26.0481C105.797 25.958 105.452 25.7701 105.136 25.4846C104.82 25.184 104.565 24.7557 104.37 24.1997C104.174 23.6437 104.084 22.9073 104.099 21.9906L104.144 15.8368H102.476V14.5745C102.882 14.5594 103.288 14.4091 103.693 14.1236C104.114 13.8381 104.482 13.4549 104.798 12.974C105.129 12.4931 105.354 11.9747 105.474 11.4186H106.534V14.5745H110.005V15.7466L106.534 15.7917L106.489 21.8103C106.489 22.6669 106.601 23.3582 106.827 23.8841C107.067 24.3951 107.488 24.6505 108.089 24.6505C108.435 24.6505 108.788 24.5454 109.148 24.335C109.524 24.1246 109.877 23.7789 110.208 23.2981L110.974 23.9743C110.493 24.6806 110.013 25.1915 109.532 25.5071C109.051 25.8077 108.615 25.9955 108.224 26.0707C107.833 26.1608 107.525 26.2059 107.3 26.2059Z" fill="white"/>
<path d="M117.342 26.2059C116.29 26.2059 115.343 25.9655 114.502 25.4846C113.675 24.9887 113.021 24.2974 112.541 23.4108C112.06 22.5091 111.819 21.4496 111.819 20.2324C111.819 19.1805 112.052 18.1961 112.518 17.2794C112.999 16.3628 113.66 15.6264 114.502 15.0704C115.358 14.4993 116.358 14.2138 117.5 14.2138C118.326 14.2138 119.1 14.3941 119.822 14.7548C120.543 15.1004 121.121 15.6565 121.557 16.4229C122.008 17.1743 122.233 18.1661 122.233 19.3984L114.479 19.5336C114.479 20.5705 114.592 21.4872 114.817 22.2837C115.058 23.0651 115.441 23.6737 115.967 24.1095C116.493 24.5454 117.177 24.7633 118.018 24.7633C118.634 24.7633 119.288 24.6055 119.979 24.2899C120.671 23.9593 121.234 23.516 121.67 22.9599L122.369 23.5686C121.903 24.2448 121.377 24.7783 120.791 25.169C120.22 25.5447 119.626 25.8077 119.01 25.958C118.409 26.1233 117.853 26.2059 117.342 26.2059ZM114.569 18.3614H119.776C119.776 17.5199 119.596 16.8061 119.235 16.22C118.875 15.6189 118.311 15.3183 117.545 15.3183C116.733 15.3183 116.072 15.5738 115.561 16.0847C115.065 16.5807 114.735 17.3396 114.569 18.3614Z" fill="white"/>
<path d="M124.127 24.8985C124.578 24.8985 124.894 24.7933 125.074 24.5829C125.254 24.3725 125.36 24.0795 125.39 23.7038C125.435 23.3281 125.457 22.8923 125.457 22.3964V17.7077C125.457 17.4673 125.457 17.2118 125.457 16.9413C125.472 16.6708 125.502 16.3928 125.547 16.1073C125.292 16.1073 125.021 16.1148 124.736 16.1298C124.45 16.1449 124.187 16.1599 123.947 16.1749V14.9802H124.713C125.345 14.9802 125.818 14.9126 126.134 14.7773C126.464 14.6421 126.712 14.4993 126.877 14.349H127.689C127.719 14.5594 127.741 14.8525 127.757 15.2282C127.772 15.6039 127.787 16.0246 127.802 16.4905C128.222 15.8744 128.748 15.3409 129.38 14.89C130.011 14.4392 130.687 14.2138 131.408 14.2138C131.874 14.2138 132.272 14.3415 132.603 14.597C132.949 14.8374 133.121 15.2357 133.121 15.7917C133.121 16.0321 133.024 16.3026 132.828 16.6032C132.633 16.9038 132.302 17.0465 131.837 17.0315C131.521 17.0165 131.243 16.8962 131.003 16.6708C130.777 16.4454 130.672 16.1373 130.687 15.7466C130.326 15.7466 129.966 15.8593 129.605 16.0847C129.244 16.2951 128.906 16.5807 128.591 16.9413C128.275 17.302 128.02 17.6927 127.824 18.1135V23.0501C127.824 23.3206 127.817 23.5986 127.802 23.8841C127.802 24.1546 127.779 24.4326 127.734 24.7182C127.974 24.7031 128.222 24.6956 128.478 24.6956C128.733 24.6806 128.966 24.6656 129.177 24.6505V25.8453H124.127V24.8985Z" fill="white"/>
<path d="M139.033 26.2059C138.311 26.2059 137.65 26.1082 137.049 25.9129C136.463 25.7325 135.99 25.5146 135.629 25.2592L135.697 26.003H134.502L134.389 22.1259H135.336C135.366 22.6969 135.539 23.2079 135.854 23.6587C136.17 24.0945 136.576 24.4402 137.072 24.6956C137.583 24.9511 138.131 25.0788 138.717 25.0788C139.063 25.0788 139.401 25.0262 139.732 24.921C140.062 24.8008 140.34 24.628 140.566 24.4026C140.791 24.1621 140.904 23.8691 140.904 23.5235C140.889 22.9524 140.626 22.5241 140.115 22.2386C139.619 21.938 138.995 21.6375 138.244 21.3369C137.643 21.1115 137.042 20.856 136.44 20.5705C135.839 20.285 135.336 19.9168 134.93 19.466C134.539 19.0001 134.344 18.3765 134.344 17.595C134.344 17.1292 134.464 16.6333 134.705 16.1073C134.945 15.5813 135.358 15.138 135.945 14.7773C136.531 14.4016 137.32 14.2138 138.311 14.2138C138.717 14.2138 139.176 14.2814 139.686 14.4167C140.197 14.5519 140.663 14.7848 141.084 15.1155L141.062 14.3265H142.256V18.2938H141.287C141.242 17.7678 141.099 17.2794 140.859 16.8286C140.633 16.3778 140.31 16.0096 139.889 15.7241C139.469 15.4385 138.958 15.2958 138.357 15.2958C137.755 15.2958 137.275 15.4461 136.914 15.7466C136.553 16.0321 136.373 16.3928 136.373 16.8286C136.373 17.2644 136.508 17.6176 136.779 17.8881C137.064 18.1586 137.432 18.3915 137.883 18.5869C138.334 18.7822 138.822 18.9776 139.348 19.1729C139.98 19.4284 140.573 19.7064 141.129 20.007C141.685 20.3075 142.136 20.6832 142.482 21.1341C142.827 21.5849 143 22.1559 143 22.8472C143 23.6136 142.805 24.2448 142.414 24.7407C142.038 25.2366 141.542 25.6048 140.926 25.8453C140.325 26.0857 139.694 26.2059 139.033 26.2059Z" fill="white"/>
</svg>
