<svg width="169" height="142" viewBox="0 0 169 142" fill="none" xmlns="http://www.w3.org/2000/svg">
<g opacity="0.2" clip-path="url(#clip0)">
<g opacity="0.2">
<path d="M5.03528 44.6633H1.9766C0.884955 44.6633 0 45.5605 0 46.6673V49.7448C0 50.8515 0.884955 51.7487 1.9766 51.7487H5.03528C6.12693 51.7487 7.01189 50.8515 7.01189 49.7448V46.6673C7.01189 45.5605 6.12693 44.6633 5.03528 44.6633Z" fill="#2C7A7B"/>
<path d="M5.03528 29.9021H1.9766C0.884955 29.9021 0 30.7993 0 31.9061V34.9836C0 36.0903 0.884955 36.9875 1.9766 36.9875H5.03528C6.12693 36.9875 7.01189 36.0903 7.01189 34.9836V31.9061C7.01189 30.7993 6.12693 29.9021 5.03528 29.9021Z" fill="#2C7A7B"/>
<path d="M5.03528 15.1409H1.9766C0.884955 15.1409 0 16.0381 0 17.1448V20.2223C0 21.3291 0.884955 22.2263 1.9766 22.2263H5.03528C6.12693 22.2263 7.01189 21.3291 7.01189 20.2223V17.1448C7.01189 16.0381 6.12693 15.1409 5.03528 15.1409Z" fill="#2C7A7B"/>
<path d="M5.03528 0.379395H1.9766C0.884955 0.379395 0 1.2766 0 2.38335V5.46086C0 6.56762 0.884955 7.46482 1.9766 7.46482H5.03528C6.12693 7.46482 7.01189 6.56762 7.01189 5.46086V2.38335C7.01189 1.2766 6.12693 0.379395 5.03528 0.379395Z" fill="#2C7A7B"/>
<path d="M5.03528 59.4246H1.9766C0.884955 59.4246 0 60.3218 0 61.4285V64.506C0 65.6128 0.884955 66.51 1.9766 66.51H5.03528C6.12693 66.51 7.01189 65.6128 7.01189 64.506V61.4285C7.01189 60.3218 6.12693 59.4246 5.03528 59.4246Z" fill="#2C7A7B"/>
<path d="M19.6442 44.6633H16.5855C15.4938 44.6633 14.6089 45.5605 14.6089 46.6673V49.7448C14.6089 50.8515 15.4938 51.7487 16.5855 51.7487H19.6442C20.7358 51.7487 21.6208 50.8515 21.6208 49.7448V46.6673C21.6208 45.5605 20.7358 44.6633 19.6442 44.6633Z" fill="#2C7A7B"/>
<path d="M19.6442 29.9021H16.5855C15.4938 29.9021 14.6089 30.7993 14.6089 31.9061V34.9836C14.6089 36.0903 15.4938 36.9875 16.5855 36.9875H19.6442C20.7358 36.9875 21.6208 36.0903 21.6208 34.9836V31.9061C21.6208 30.7993 20.7358 29.9021 19.6442 29.9021Z" fill="#2C7A7B"/>
<path d="M19.6442 15.1409H16.5855C15.4938 15.1409 14.6089 16.0381 14.6089 17.1448V20.2223C14.6089 21.3291 15.4938 22.2263 16.5855 22.2263H19.6442C20.7358 22.2263 21.6208 21.3291 21.6208 20.2223V17.1448C21.6208 16.0381 20.7358 15.1409 19.6442 15.1409Z" fill="#2C7A7B"/>
<path d="M19.6442 0.379395H16.5855C15.4938 0.379395 14.6089 1.2766 14.6089 2.38335V5.46086C14.6089 6.56762 15.4938 7.46482 16.5855 7.46482H19.6442C20.7358 7.46482 21.6208 6.56762 21.6208 5.46086V2.38335C21.6208 1.2766 20.7358 0.379395 19.6442 0.379395Z" fill="#2C7A7B"/>
<path d="M19.6442 59.4246H16.5855C15.4938 59.4246 14.6089 60.3218 14.6089 61.4285V64.506C14.6089 65.6128 15.4938 66.51 16.5855 66.51H19.6442C20.7358 66.51 21.6208 65.6128 21.6208 64.506V61.4285C21.6208 60.3218 20.7358 59.4246 19.6442 59.4246Z" fill="#2C7A7B"/>
<path d="M34.2506 44.6633H31.1919C30.1003 44.6633 29.2153 45.5605 29.2153 46.6673V49.7448C29.2153 50.8515 30.1003 51.7487 31.1919 51.7487H34.2506C35.3423 51.7487 36.2272 50.8515 36.2272 49.7448V46.6673C36.2272 45.5605 35.3423 44.6633 34.2506 44.6633Z" fill="#2C7A7B"/>
<path d="M34.2506 29.9021H31.1919C30.1003 29.9021 29.2153 30.7993 29.2153 31.9061V34.9836C29.2153 36.0903 30.1003 36.9875 31.1919 36.9875H34.2506C35.3423 36.9875 36.2272 36.0903 36.2272 34.9836V31.9061C36.2272 30.7993 35.3423 29.9021 34.2506 29.9021Z" fill="#2C7A7B"/>
<path d="M34.2506 15.1409H31.1919C30.1003 15.1409 29.2153 16.0381 29.2153 17.1448V20.2223C29.2153 21.3291 30.1003 22.2263 31.1919 22.2263H34.2506C35.3423 22.2263 36.2272 21.3291 36.2272 20.2223V17.1448C36.2272 16.0381 35.3423 15.1409 34.2506 15.1409Z" fill="#2C7A7B"/>
<path d="M34.2506 0.379395H31.1919C30.1003 0.379395 29.2153 1.2766 29.2153 2.38335V5.46086C29.2153 6.56762 30.1003 7.46482 31.1919 7.46482H34.2506C35.3423 7.46482 36.2272 6.56762 36.2272 5.46086V2.38335C36.2272 1.2766 35.3423 0.379395 34.2506 0.379395Z" fill="#2C7A7B"/>
<path d="M34.2506 59.4246H31.1919C30.1003 59.4246 29.2153 60.3218 29.2153 61.4285V64.506C29.2153 65.6128 30.1003 66.51 31.1919 66.51H34.2506C35.3423 66.51 36.2272 65.6128 36.2272 64.506V61.4285C36.2272 60.3218 35.3423 59.4246 34.2506 59.4246Z" fill="#2C7A7B"/>
<path d="M48.8595 44.6633H45.8008C44.7092 44.6633 43.8242 45.5605 43.8242 46.6673V49.7448C43.8242 50.8515 44.7092 51.7487 45.8008 51.7487H48.8595C49.9511 51.7487 50.8361 50.8515 50.8361 49.7448V46.6673C50.8361 45.5605 49.9511 44.6633 48.8595 44.6633Z" fill="#2C7A7B"/>
<path d="M48.8595 29.9021H45.8008C44.7092 29.9021 43.8242 30.7993 43.8242 31.9061V34.9836C43.8242 36.0903 44.7092 36.9875 45.8008 36.9875H48.8595C49.9511 36.9875 50.8361 36.0903 50.8361 34.9836V31.9061C50.8361 30.7993 49.9511 29.9021 48.8595 29.9021Z" fill="#2C7A7B"/>
<path d="M48.8595 15.1409H45.8008C44.7092 15.1409 43.8242 16.0381 43.8242 17.1448V20.2223C43.8242 21.3291 44.7092 22.2263 45.8008 22.2263H48.8595C49.9511 22.2263 50.8361 21.3291 50.8361 20.2223V17.1448C50.8361 16.0381 49.9511 15.1409 48.8595 15.1409Z" fill="#2C7A7B"/>
<path d="M48.8595 0.379395H45.8008C44.7092 0.379395 43.8242 1.2766 43.8242 2.38335V5.46086C43.8242 6.56762 44.7092 7.46482 45.8008 7.46482H48.8595C49.9511 7.46482 50.8361 6.56762 50.8361 5.46086V2.38335C50.8361 1.2766 49.9511 0.379395 48.8595 0.379395Z" fill="#2C7A7B"/>
<path d="M48.8595 59.4246H45.8008C44.7092 59.4246 43.8242 60.3218 43.8242 61.4285V64.506C43.8242 65.6128 44.7092 66.51 45.8008 66.51H48.8595C49.9511 66.51 50.8361 65.6128 50.8361 64.506V61.4285C50.8361 60.3218 49.9511 59.4246 48.8595 59.4246Z" fill="#2C7A7B"/>
<path d="M63.4679 44.6633H60.4092C59.3176 44.6633 58.4326 45.5605 58.4326 46.6673V49.7448C58.4326 50.8515 59.3176 51.7487 60.4092 51.7487H63.4679C64.5595 51.7487 65.4445 50.8515 65.4445 49.7448V46.6673C65.4445 45.5605 64.5595 44.6633 63.4679 44.6633Z" fill="#2C7A7B"/>
<path d="M63.4679 29.9021H60.4092C59.3176 29.9021 58.4326 30.7993 58.4326 31.9061V34.9836C58.4326 36.0903 59.3176 36.9875 60.4092 36.9875H63.4679C64.5595 36.9875 65.4445 36.0903 65.4445 34.9836V31.9061C65.4445 30.7993 64.5595 29.9021 63.4679 29.9021Z" fill="#2C7A7B"/>
<path d="M63.4679 15.1409H60.4092C59.3176 15.1409 58.4326 16.0381 58.4326 17.1448V20.2223C58.4326 21.3291 59.3176 22.2263 60.4092 22.2263H63.4679C64.5595 22.2263 65.4445 21.3291 65.4445 20.2223V17.1448C65.4445 16.0381 64.5595 15.1409 63.4679 15.1409Z" fill="#2C7A7B"/>
<path d="M63.4679 0.379395H60.4092C59.3176 0.379395 58.4326 1.2766 58.4326 2.38335V5.46086C58.4326 6.56762 59.3176 7.46482 60.4092 7.46482H63.4679C64.5595 7.46482 65.4445 6.56762 65.4445 5.46086V2.38335C65.4445 1.2766 64.5595 0.379395 63.4679 0.379395Z" fill="#2C7A7B"/>
<path d="M63.4679 59.4246H60.4092C59.3176 59.4246 58.4326 60.3218 58.4326 61.4285V64.506C58.4326 65.6128 59.3176 66.51 60.4092 66.51H63.4679C64.5595 66.51 65.4445 65.6128 65.4445 64.506V61.4285C65.4445 60.3218 64.5595 59.4246 63.4679 59.4246Z" fill="#2C7A7B"/>
<path d="M78.0753 44.6633H75.0166C73.925 44.6633 73.04 45.5605 73.04 46.6673V49.7448C73.04 50.8515 73.925 51.7487 75.0166 51.7487H78.0753C79.167 51.7487 80.0519 50.8515 80.0519 49.7448V46.6673C80.0519 45.5605 79.167 44.6633 78.0753 44.6633Z" fill="#2C7A7B"/>
<path d="M78.0753 29.9021H75.0166C73.925 29.9021 73.04 30.7993 73.04 31.9061V34.9836C73.04 36.0903 73.925 36.9875 75.0166 36.9875H78.0753C79.167 36.9875 80.0519 36.0903 80.0519 34.9836V31.9061C80.0519 30.7993 79.167 29.9021 78.0753 29.9021Z" fill="#2C7A7B"/>
<path d="M78.0753 15.1409H75.0166C73.925 15.1409 73.04 16.0381 73.04 17.1448V20.2223C73.04 21.3291 73.925 22.2263 75.0166 22.2263H78.0753C79.167 22.2263 80.0519 21.3291 80.0519 20.2223V17.1448C80.0519 16.0381 79.167 15.1409 78.0753 15.1409Z" fill="#2C7A7B"/>
<path d="M78.0753 0.379395H75.0166C73.925 0.379395 73.04 1.2766 73.04 2.38335V5.46086C73.04 6.56762 73.925 7.46482 75.0166 7.46482H78.0753C79.167 7.46482 80.0519 6.56762 80.0519 5.46086V2.38335C80.0519 1.2766 79.167 0.379395 78.0753 0.379395Z" fill="#2C7A7B"/>
<path d="M78.0753 59.4246H75.0166C73.925 59.4246 73.04 60.3218 73.04 61.4285V64.506C73.04 65.6128 73.925 66.51 75.0166 66.51H78.0753C79.167 66.51 80.0519 65.6128 80.0519 64.506V61.4285C80.0519 60.3218 79.167 59.4246 78.0753 59.4246Z" fill="#2C7A7B"/>
<path d="M5.03528 119.812H1.9766C0.884955 119.812 0 120.709 0 121.816V124.893C0 126 0.884955 126.897 1.9766 126.897H5.03528C6.12693 126.897 7.01189 126 7.01189 124.893V121.816C7.01189 120.709 6.12693 119.812 5.03528 119.812Z" fill="#2C7A7B"/>
<path d="M5.03528 105.051H1.9766C0.884955 105.051 0 105.948 0 107.054V110.132C0 111.239 0.884955 112.136 1.9766 112.136H5.03528C6.12693 112.136 7.01189 111.239 7.01189 110.132V107.054C7.01189 105.948 6.12693 105.051 5.03528 105.051Z" fill="#2C7A7B"/>
<path d="M5.03528 90.2893H1.9766C0.884955 90.2893 0 91.1865 0 92.2933V95.3708C0 96.4775 0.884955 97.3747 1.9766 97.3747H5.03528C6.12693 97.3747 7.01189 96.4775 7.01189 95.3708V92.2933C7.01189 91.1865 6.12693 90.2893 5.03528 90.2893Z" fill="#2C7A7B"/>
<path d="M5.03528 75.5278H1.9766C0.884955 75.5278 0 76.425 0 77.5318V80.6093C0 81.7161 0.884955 82.6133 1.9766 82.6133H5.03528C6.12693 82.6133 7.01189 81.7161 7.01189 80.6093V77.5318C7.01189 76.425 6.12693 75.5278 5.03528 75.5278Z" fill="#2C7A7B"/>
<path d="M5.03528 134.573H1.9766C0.884955 134.573 0 135.47 0 136.577V139.654C0 140.761 0.884955 141.658 1.9766 141.658H5.03528C6.12693 141.658 7.01189 140.761 7.01189 139.654V136.577C7.01189 135.47 6.12693 134.573 5.03528 134.573Z" fill="#2C7A7B"/>
<path d="M19.6442 119.812H16.5855C15.4938 119.812 14.6089 120.709 14.6089 121.816V124.893C14.6089 126 15.4938 126.897 16.5855 126.897H19.6442C20.7358 126.897 21.6208 126 21.6208 124.893V121.816C21.6208 120.709 20.7358 119.812 19.6442 119.812Z" fill="#2C7A7B"/>
<path d="M19.6442 105.051H16.5855C15.4938 105.051 14.6089 105.948 14.6089 107.054V110.132C14.6089 111.239 15.4938 112.136 16.5855 112.136H19.6442C20.7358 112.136 21.6208 111.239 21.6208 110.132V107.054C21.6208 105.948 20.7358 105.051 19.6442 105.051Z" fill="#2C7A7B"/>
<path d="M19.6442 90.2893H16.5855C15.4938 90.2893 14.6089 91.1865 14.6089 92.2933V95.3708C14.6089 96.4775 15.4938 97.3747 16.5855 97.3747H19.6442C20.7358 97.3747 21.6208 96.4775 21.6208 95.3708V92.2933C21.6208 91.1865 20.7358 90.2893 19.6442 90.2893Z" fill="#2C7A7B"/>
<path d="M19.6442 75.5278H16.5855C15.4938 75.5278 14.6089 76.425 14.6089 77.5318V80.6093C14.6089 81.7161 15.4938 82.6133 16.5855 82.6133H19.6442C20.7358 82.6133 21.6208 81.7161 21.6208 80.6093V77.5318C21.6208 76.425 20.7358 75.5278 19.6442 75.5278Z" fill="#2C7A7B"/>
<path d="M19.6442 134.573H16.5855C15.4938 134.573 14.6089 135.47 14.6089 136.577V139.654C14.6089 140.761 15.4938 141.658 16.5855 141.658H19.6442C20.7358 141.658 21.6208 140.761 21.6208 139.654V136.577C21.6208 135.47 20.7358 134.573 19.6442 134.573Z" fill="#2C7A7B"/>
<path d="M34.2506 119.812H31.1919C30.1003 119.812 29.2153 120.709 29.2153 121.816V124.893C29.2153 126 30.1003 126.897 31.1919 126.897H34.2506C35.3423 126.897 36.2272 126 36.2272 124.893V121.816C36.2272 120.709 35.3423 119.812 34.2506 119.812Z" fill="#2C7A7B"/>
<path d="M34.2506 105.051H31.1919C30.1003 105.051 29.2153 105.948 29.2153 107.054V110.132C29.2153 111.239 30.1003 112.136 31.1919 112.136H34.2506C35.3423 112.136 36.2272 111.239 36.2272 110.132V107.054C36.2272 105.948 35.3423 105.051 34.2506 105.051Z" fill="#2C7A7B"/>
<path d="M34.2506 90.2893H31.1919C30.1003 90.2893 29.2153 91.1865 29.2153 92.2933V95.3708C29.2153 96.4775 30.1003 97.3747 31.1919 97.3747H34.2506C35.3423 97.3747 36.2272 96.4775 36.2272 95.3708V92.2933C36.2272 91.1865 35.3423 90.2893 34.2506 90.2893Z" fill="#2C7A7B"/>
<path d="M34.2506 75.5278H31.1919C30.1003 75.5278 29.2153 76.425 29.2153 77.5318V80.6093C29.2153 81.7161 30.1003 82.6133 31.1919 82.6133H34.2506C35.3423 82.6133 36.2272 81.7161 36.2272 80.6093V77.5318C36.2272 76.425 35.3423 75.5278 34.2506 75.5278Z" fill="#2C7A7B"/>
<path d="M34.2506 134.573H31.1919C30.1003 134.573 29.2153 135.47 29.2153 136.577V139.654C29.2153 140.761 30.1003 141.658 31.1919 141.658H34.2506C35.3423 141.658 36.2272 140.761 36.2272 139.654V136.577C36.2272 135.47 35.3423 134.573 34.2506 134.573Z" fill="#2C7A7B"/>
<path d="M48.8595 119.812H45.8008C44.7092 119.812 43.8242 120.709 43.8242 121.816V124.893C43.8242 126 44.7092 126.897 45.8008 126.897H48.8595C49.9511 126.897 50.8361 126 50.8361 124.893V121.816C50.8361 120.709 49.9511 119.812 48.8595 119.812Z" fill="#2C7A7B"/>
<path d="M48.8595 105.051H45.8008C44.7092 105.051 43.8242 105.948 43.8242 107.054V110.132C43.8242 111.239 44.7092 112.136 45.8008 112.136H48.8595C49.9511 112.136 50.8361 111.239 50.8361 110.132V107.054C50.8361 105.948 49.9511 105.051 48.8595 105.051Z" fill="#2C7A7B"/>
<path d="M48.8595 90.2893H45.8008C44.7092 90.2893 43.8242 91.1865 43.8242 92.2933V95.3708C43.8242 96.4775 44.7092 97.3747 45.8008 97.3747H48.8595C49.9511 97.3747 50.8361 96.4775 50.8361 95.3708V92.2933C50.8361 91.1865 49.9511 90.2893 48.8595 90.2893Z" fill="#2C7A7B"/>
<path d="M48.8595 75.5278H45.8008C44.7092 75.5278 43.8242 76.425 43.8242 77.5318V80.6093C43.8242 81.7161 44.7092 82.6133 45.8008 82.6133H48.8595C49.9511 82.6133 50.8361 81.7161 50.8361 80.6093V77.5318C50.8361 76.425 49.9511 75.5278 48.8595 75.5278Z" fill="#2C7A7B"/>
<path d="M48.8595 134.573H45.8008C44.7092 134.573 43.8242 135.47 43.8242 136.577V139.654C43.8242 140.761 44.7092 141.658 45.8008 141.658H48.8595C49.9511 141.658 50.8361 140.761 50.8361 139.654V136.577C50.8361 135.47 49.9511 134.573 48.8595 134.573Z" fill="#2C7A7B"/>
<path d="M63.4679 119.812H60.4092C59.3176 119.812 58.4326 120.709 58.4326 121.816V124.893C58.4326 126 59.3176 126.897 60.4092 126.897H63.4679C64.5595 126.897 65.4445 126 65.4445 124.893V121.816C65.4445 120.709 64.5595 119.812 63.4679 119.812Z" fill="#2C7A7B"/>
<path d="M63.4679 105.051H60.4092C59.3176 105.051 58.4326 105.948 58.4326 107.054V110.132C58.4326 111.239 59.3176 112.136 60.4092 112.136H63.4679C64.5595 112.136 65.4445 111.239 65.4445 110.132V107.054C65.4445 105.948 64.5595 105.051 63.4679 105.051Z" fill="#2C7A7B"/>
<path d="M63.4679 90.2893H60.4092C59.3176 90.2893 58.4326 91.1865 58.4326 92.2933V95.3708C58.4326 96.4775 59.3176 97.3747 60.4092 97.3747H63.4679C64.5595 97.3747 65.4445 96.4775 65.4445 95.3708V92.2933C65.4445 91.1865 64.5595 90.2893 63.4679 90.2893Z" fill="#2C7A7B"/>
<path d="M63.4679 75.5278H60.4092C59.3176 75.5278 58.4326 76.425 58.4326 77.5318V80.6093C58.4326 81.7161 59.3176 82.6133 60.4092 82.6133H63.4679C64.5595 82.6133 65.4445 81.7161 65.4445 80.6093V77.5318C65.4445 76.425 64.5595 75.5278 63.4679 75.5278Z" fill="#2C7A7B"/>
<path d="M63.4679 134.573H60.4092C59.3176 134.573 58.4326 135.47 58.4326 136.577V139.654C58.4326 140.761 59.3176 141.658 60.4092 141.658H63.4679C64.5595 141.658 65.4445 140.761 65.4445 139.654V136.577C65.4445 135.47 64.5595 134.573 63.4679 134.573Z" fill="#2C7A7B"/>
<path d="M78.0753 119.812H75.0166C73.925 119.812 73.04 120.709 73.04 121.816V124.893C73.04 126 73.925 126.897 75.0166 126.897H78.0753C79.167 126.897 80.0519 126 80.0519 124.893V121.816C80.0519 120.709 79.167 119.812 78.0753 119.812Z" fill="#2C7A7B"/>
<path d="M78.0753 105.051H75.0166C73.925 105.051 73.04 105.948 73.04 107.054V110.132C73.04 111.239 73.925 112.136 75.0166 112.136H78.0753C79.167 112.136 80.0519 111.239 80.0519 110.132V107.054C80.0519 105.948 79.167 105.051 78.0753 105.051Z" fill="#2C7A7B"/>
<path d="M78.0753 90.2893H75.0166C73.925 90.2893 73.04 91.1865 73.04 92.2933V95.3708C73.04 96.4775 73.925 97.3747 75.0166 97.3747H78.0753C79.167 97.3747 80.0519 96.4775 80.0519 95.3708V92.2933C80.0519 91.1865 79.167 90.2893 78.0753 90.2893Z" fill="#2C7A7B"/>
<path d="M78.0753 75.5278H75.0166C73.925 75.5278 73.04 76.425 73.04 77.5318V80.6093C73.04 81.7161 73.925 82.6133 75.0166 82.6133H78.0753C79.167 82.6133 80.0519 81.7161 80.0519 80.6093V77.5318C80.0519 76.425 79.167 75.5278 78.0753 75.5278Z" fill="#2C7A7B"/>
<path d="M78.0753 134.573H75.0166C73.925 134.573 73.04 135.47 73.04 136.577V139.654C73.04 140.761 73.925 141.658 75.0166 141.658H78.0753C79.167 141.658 80.0519 140.761 80.0519 139.654V136.577C80.0519 135.47 79.167 134.573 78.0753 134.573Z" fill="#2C7A7B"/>
<path d="M93.9816 44.6633H90.9229C89.8312 44.6633 88.9463 45.5605 88.9463 46.6673V49.7448C88.9463 50.8515 89.8312 51.7487 90.9229 51.7487H93.9816C95.0732 51.7487 95.9582 50.8515 95.9582 49.7448V46.6673C95.9582 45.5605 95.0732 44.6633 93.9816 44.6633Z" fill="#2C7A7B"/>
<path d="M93.9816 29.9021H90.9229C89.8312 29.9021 88.9463 30.7993 88.9463 31.9061V34.9836C88.9463 36.0903 89.8312 36.9875 90.9229 36.9875H93.9816C95.0732 36.9875 95.9582 36.0903 95.9582 34.9836V31.9061C95.9582 30.7993 95.0732 29.9021 93.9816 29.9021Z" fill="#2C7A7B"/>
<path d="M93.9816 15.1409H90.9229C89.8312 15.1409 88.9463 16.0381 88.9463 17.1448V20.2223C88.9463 21.3291 89.8312 22.2263 90.9229 22.2263H93.9816C95.0732 22.2263 95.9582 21.3291 95.9582 20.2223V17.1448C95.9582 16.0381 95.0732 15.1409 93.9816 15.1409Z" fill="#2C7A7B"/>
<path d="M93.9816 0.379395H90.9229C89.8312 0.379395 88.9463 1.2766 88.9463 2.38335V5.46086C88.9463 6.56762 89.8312 7.46482 90.9229 7.46482H93.9816C95.0732 7.46482 95.9582 6.56762 95.9582 5.46086V2.38335C95.9582 1.2766 95.0732 0.379395 93.9816 0.379395Z" fill="#2C7A7B"/>
<path d="M93.9816 59.4246H90.9229C89.8312 59.4246 88.9463 60.3218 88.9463 61.4285V64.506C88.9463 65.6128 89.8312 66.51 90.9229 66.51H93.9816C95.0732 66.51 95.9582 65.6128 95.9582 64.506V61.4285C95.9582 60.3218 95.0732 59.4246 93.9816 59.4246Z" fill="#2C7A7B"/>
<path d="M108.59 44.6633H105.531C104.44 44.6633 103.555 45.5605 103.555 46.6673V49.7448C103.555 50.8515 104.44 51.7487 105.531 51.7487H108.59C109.682 51.7487 110.567 50.8515 110.567 49.7448V46.6673C110.567 45.5605 109.682 44.6633 108.59 44.6633Z" fill="#2C7A7B"/>
<path d="M108.59 29.9021H105.531C104.44 29.9021 103.555 30.7993 103.555 31.9061V34.9836C103.555 36.0903 104.44 36.9875 105.531 36.9875H108.59C109.682 36.9875 110.567 36.0903 110.567 34.9836V31.9061C110.567 30.7993 109.682 29.9021 108.59 29.9021Z" fill="#2C7A7B"/>
<path d="M108.59 15.1409H105.531C104.44 15.1409 103.555 16.0381 103.555 17.1448V20.2223C103.555 21.3291 104.44 22.2263 105.531 22.2263H108.59C109.682 22.2263 110.567 21.3291 110.567 20.2223V17.1448C110.567 16.0381 109.682 15.1409 108.59 15.1409Z" fill="#2C7A7B"/>
<path d="M108.59 0.379395H105.531C104.44 0.379395 103.555 1.2766 103.555 2.38335V5.46086C103.555 6.56762 104.44 7.46482 105.531 7.46482H108.59C109.682 7.46482 110.567 6.56762 110.567 5.46086V2.38335C110.567 1.2766 109.682 0.379395 108.59 0.379395Z" fill="#2C7A7B"/>
<path d="M108.59 59.4246H105.531C104.44 59.4246 103.555 60.3218 103.555 61.4285V64.506C103.555 65.6128 104.44 66.51 105.531 66.51H108.59C109.682 66.51 110.567 65.6128 110.567 64.506V61.4285C110.567 60.3218 109.682 59.4246 108.59 59.4246Z" fill="#2C7A7B"/>
<path d="M123.198 44.6633H120.14C119.048 44.6633 118.163 45.5605 118.163 46.6673V49.7448C118.163 50.8515 119.048 51.7487 120.14 51.7487H123.198C124.29 51.7487 125.175 50.8515 125.175 49.7448V46.6673C125.175 45.5605 124.29 44.6633 123.198 44.6633Z" fill="#2C7A7B"/>
<path d="M123.198 29.9021H120.14C119.048 29.9021 118.163 30.7993 118.163 31.9061V34.9836C118.163 36.0903 119.048 36.9875 120.14 36.9875H123.198C124.29 36.9875 125.175 36.0903 125.175 34.9836V31.9061C125.175 30.7993 124.29 29.9021 123.198 29.9021Z" fill="#2C7A7B"/>
<path d="M123.198 15.1409H120.14C119.048 15.1409 118.163 16.0381 118.163 17.1448V20.2223C118.163 21.3291 119.048 22.2263 120.14 22.2263H123.198C124.29 22.2263 125.175 21.3291 125.175 20.2223V17.1448C125.175 16.0381 124.29 15.1409 123.198 15.1409Z" fill="#2C7A7B"/>
<path d="M123.198 0.379395H120.14C119.048 0.379395 118.163 1.2766 118.163 2.38335V5.46086C118.163 6.56762 119.048 7.46482 120.14 7.46482H123.198C124.29 7.46482 125.175 6.56762 125.175 5.46086V2.38335C125.175 1.2766 124.29 0.379395 123.198 0.379395Z" fill="#2C7A7B"/>
<path d="M123.198 59.4246H120.14C119.048 59.4246 118.163 60.3218 118.163 61.4285V64.506C118.163 65.6128 119.048 66.51 120.14 66.51H123.198C124.29 66.51 125.175 65.6128 125.175 64.506V61.4285C125.175 60.3218 124.29 59.4246 123.198 59.4246Z" fill="#2C7A7B"/>
<path d="M137.806 44.6633H134.748C133.656 44.6633 132.771 45.5605 132.771 46.6673V49.7448C132.771 50.8515 133.656 51.7487 134.748 51.7487H137.806C138.898 51.7487 139.783 50.8515 139.783 49.7448V46.6673C139.783 45.5605 138.898 44.6633 137.806 44.6633Z" fill="#2C7A7B"/>
<path d="M137.806 29.9021H134.748C133.656 29.9021 132.771 30.7993 132.771 31.9061V34.9836C132.771 36.0903 133.656 36.9875 134.748 36.9875H137.806C138.898 36.9875 139.783 36.0903 139.783 34.9836V31.9061C139.783 30.7993 138.898 29.9021 137.806 29.9021Z" fill="#2C7A7B"/>
<path d="M137.806 15.1409H134.748C133.656 15.1409 132.771 16.0381 132.771 17.1448V20.2223C132.771 21.3291 133.656 22.2263 134.748 22.2263H137.806C138.898 22.2263 139.783 21.3291 139.783 20.2223V17.1448C139.783 16.0381 138.898 15.1409 137.806 15.1409Z" fill="#2C7A7B"/>
<path d="M137.806 0.379395H134.748C133.656 0.379395 132.771 1.2766 132.771 2.38335V5.46086C132.771 6.56762 133.656 7.46482 134.748 7.46482H137.806C138.898 7.46482 139.783 6.56762 139.783 5.46086V2.38335C139.783 1.2766 138.898 0.379395 137.806 0.379395Z" fill="#2C7A7B"/>
<path d="M137.806 59.4246H134.748C133.656 59.4246 132.771 60.3218 132.771 61.4285V64.506C132.771 65.6128 133.656 66.51 134.748 66.51H137.806C138.898 66.51 139.783 65.6128 139.783 64.506V61.4285C139.783 60.3218 138.898 59.4246 137.806 59.4246Z" fill="#2C7A7B"/>
<path d="M152.414 44.6633H149.356C148.264 44.6633 147.379 45.5605 147.379 46.6673V49.7448C147.379 50.8515 148.264 51.7487 149.356 51.7487H152.414C153.506 51.7487 154.391 50.8515 154.391 49.7448V46.6673C154.391 45.5605 153.506 44.6633 152.414 44.6633Z" fill="#2C7A7B"/>
<path d="M152.414 29.9021H149.356C148.264 29.9021 147.379 30.7993 147.379 31.9061V34.9836C147.379 36.0903 148.264 36.9875 149.356 36.9875H152.414C153.506 36.9875 154.391 36.0903 154.391 34.9836V31.9061C154.391 30.7993 153.506 29.9021 152.414 29.9021Z" fill="#2C7A7B"/>
<path d="M152.414 15.1409H149.356C148.264 15.1409 147.379 16.0381 147.379 17.1448V20.2223C147.379 21.3291 148.264 22.2263 149.356 22.2263H152.414C153.506 22.2263 154.391 21.3291 154.391 20.2223V17.1448C154.391 16.0381 153.506 15.1409 152.414 15.1409Z" fill="#2C7A7B"/>
<path d="M152.414 0.379395H149.356C148.264 0.379395 147.379 1.2766 147.379 2.38335V5.46086C147.379 6.56762 148.264 7.46482 149.356 7.46482H152.414C153.506 7.46482 154.391 6.56762 154.391 5.46086V2.38335C154.391 1.2766 153.506 0.379395 152.414 0.379395Z" fill="#2C7A7B"/>
<path d="M152.414 59.4246H149.356C148.264 59.4246 147.379 60.3218 147.379 61.4285V64.506C147.379 65.6128 148.264 66.51 149.356 66.51H152.414C153.506 66.51 154.391 65.6128 154.391 64.506V61.4285C154.391 60.3218 153.506 59.4246 152.414 59.4246Z" fill="#2C7A7B"/>
<path d="M167.024 44.6633H163.965C162.873 44.6633 161.988 45.5605 161.988 46.6673V49.7448C161.988 50.8515 162.873 51.7487 163.965 51.7487H167.024C168.115 51.7487 169 50.8515 169 49.7448V46.6673C169 45.5605 168.115 44.6633 167.024 44.6633Z" fill="#2C7A7B"/>
<path d="M167.024 29.9021H163.965C162.873 29.9021 161.988 30.7993 161.988 31.9061V34.9836C161.988 36.0903 162.873 36.9875 163.965 36.9875H167.024C168.115 36.9875 169 36.0903 169 34.9836V31.9061C169 30.7993 168.115 29.9021 167.024 29.9021Z" fill="#2C7A7B"/>
<path d="M167.024 15.1409H163.965C162.873 15.1409 161.988 16.0381 161.988 17.1448V20.2223C161.988 21.3291 162.873 22.2263 163.965 22.2263H167.024C168.115 22.2263 169 21.3291 169 20.2223V17.1448C169 16.0381 168.115 15.1409 167.024 15.1409Z" fill="#2C7A7B"/>
<path d="M167.024 0.379395H163.965C162.873 0.379395 161.988 1.2766 161.988 2.38335V5.46086C161.988 6.56762 162.873 7.46482 163.965 7.46482H167.024C168.115 7.46482 169 6.56762 169 5.46086V2.38335C169 1.2766 168.115 0.379395 167.024 0.379395Z" fill="#2C7A7B"/>
<path d="M167.024 59.4246H163.965C162.873 59.4246 161.988 60.3218 161.988 61.4285V64.506C161.988 65.6128 162.873 66.51 163.965 66.51H167.024C168.115 66.51 169 65.6128 169 64.506V61.4285C169 60.3218 168.115 59.4246 167.024 59.4246Z" fill="#2C7A7B"/>
<path d="M93.9816 119.812H90.9229C89.8312 119.812 88.9463 120.709 88.9463 121.816V124.893C88.9463 126 89.8312 126.897 90.9229 126.897H93.9816C95.0732 126.897 95.9582 126 95.9582 124.893V121.816C95.9582 120.709 95.0732 119.812 93.9816 119.812Z" fill="#2C7A7B"/>
<path d="M93.9816 105.051H90.9229C89.8312 105.051 88.9463 105.948 88.9463 107.054V110.132C88.9463 111.239 89.8312 112.136 90.9229 112.136H93.9816C95.0732 112.136 95.9582 111.239 95.9582 110.132V107.054C95.9582 105.948 95.0732 105.051 93.9816 105.051Z" fill="#2C7A7B"/>
<path d="M93.9816 90.2893H90.9229C89.8312 90.2893 88.9463 91.1865 88.9463 92.2933V95.3708C88.9463 96.4775 89.8312 97.3747 90.9229 97.3747H93.9816C95.0732 97.3747 95.9582 96.4775 95.9582 95.3708V92.2933C95.9582 91.1865 95.0732 90.2893 93.9816 90.2893Z" fill="#2C7A7B"/>
<path d="M93.9816 75.5278H90.9229C89.8312 75.5278 88.9463 76.425 88.9463 77.5318V80.6093C88.9463 81.7161 89.8312 82.6133 90.9229 82.6133H93.9816C95.0732 82.6133 95.9582 81.7161 95.9582 80.6093V77.5318C95.9582 76.425 95.0732 75.5278 93.9816 75.5278Z" fill="#2C7A7B"/>
<path d="M93.9816 134.573H90.9229C89.8312 134.573 88.9463 135.47 88.9463 136.577V139.654C88.9463 140.761 89.8312 141.658 90.9229 141.658H93.9816C95.0732 141.658 95.9582 140.761 95.9582 139.654V136.577C95.9582 135.47 95.0732 134.573 93.9816 134.573Z" fill="#2C7A7B"/>
<path d="M108.59 119.812H105.531C104.44 119.812 103.555 120.709 103.555 121.816V124.893C103.555 126 104.44 126.897 105.531 126.897H108.59C109.682 126.897 110.567 126 110.567 124.893V121.816C110.567 120.709 109.682 119.812 108.59 119.812Z" fill="#2C7A7B"/>
<path d="M108.59 105.051H105.531C104.44 105.051 103.555 105.948 103.555 107.054V110.132C103.555 111.239 104.44 112.136 105.531 112.136H108.59C109.682 112.136 110.567 111.239 110.567 110.132V107.054C110.567 105.948 109.682 105.051 108.59 105.051Z" fill="#2C7A7B"/>
<path d="M108.59 90.2893H105.531C104.44 90.2893 103.555 91.1865 103.555 92.2933V95.3708C103.555 96.4775 104.44 97.3747 105.531 97.3747H108.59C109.682 97.3747 110.567 96.4775 110.567 95.3708V92.2933C110.567 91.1865 109.682 90.2893 108.59 90.2893Z" fill="#2C7A7B"/>
<path d="M108.59 75.5278H105.531C104.44 75.5278 103.555 76.425 103.555 77.5318V80.6093C103.555 81.7161 104.44 82.6133 105.531 82.6133H108.59C109.682 82.6133 110.567 81.7161 110.567 80.6093V77.5318C110.567 76.425 109.682 75.5278 108.59 75.5278Z" fill="#2C7A7B"/>
<path d="M108.59 134.573H105.531C104.44 134.573 103.555 135.47 103.555 136.577V139.654C103.555 140.761 104.44 141.658 105.531 141.658H108.59C109.682 141.658 110.567 140.761 110.567 139.654V136.577C110.567 135.47 109.682 134.573 108.59 134.573Z" fill="#2C7A7B"/>
<path d="M123.198 119.812H120.14C119.048 119.812 118.163 120.709 118.163 121.816V124.893C118.163 126 119.048 126.897 120.14 126.897H123.198C124.29 126.897 125.175 126 125.175 124.893V121.816C125.175 120.709 124.29 119.812 123.198 119.812Z" fill="#2C7A7B"/>
<path d="M123.198 105.051H120.14C119.048 105.051 118.163 105.948 118.163 107.054V110.132C118.163 111.239 119.048 112.136 120.14 112.136H123.198C124.29 112.136 125.175 111.239 125.175 110.132V107.054C125.175 105.948 124.29 105.051 123.198 105.051Z" fill="#2C7A7B"/>
<path d="M123.198 90.2893H120.14C119.048 90.2893 118.163 91.1865 118.163 92.2933V95.3708C118.163 96.4775 119.048 97.3747 120.14 97.3747H123.198C124.29 97.3747 125.175 96.4775 125.175 95.3708V92.2933C125.175 91.1865 124.29 90.2893 123.198 90.2893Z" fill="#2C7A7B"/>
<path d="M123.198 75.5278H120.14C119.048 75.5278 118.163 76.425 118.163 77.5318V80.6093C118.163 81.7161 119.048 82.6133 120.14 82.6133H123.198C124.29 82.6133 125.175 81.7161 125.175 80.6093V77.5318C125.175 76.425 124.29 75.5278 123.198 75.5278Z" fill="#2C7A7B"/>
<path d="M123.198 134.573H120.14C119.048 134.573 118.163 135.47 118.163 136.577V139.654C118.163 140.761 119.048 141.658 120.14 141.658H123.198C124.29 141.658 125.175 140.761 125.175 139.654V136.577C125.175 135.47 124.29 134.573 123.198 134.573Z" fill="#2C7A7B"/>
<path d="M137.806 119.812H134.748C133.656 119.812 132.771 120.709 132.771 121.816V124.893C132.771 126 133.656 126.897 134.748 126.897H137.806C138.898 126.897 139.783 126 139.783 124.893V121.816C139.783 120.709 138.898 119.812 137.806 119.812Z" fill="#2C7A7B"/>
<path d="M137.806 105.051H134.748C133.656 105.051 132.771 105.948 132.771 107.054V110.132C132.771 111.239 133.656 112.136 134.748 112.136H137.806C138.898 112.136 139.783 111.239 139.783 110.132V107.054C139.783 105.948 138.898 105.051 137.806 105.051Z" fill="#2C7A7B"/>
<path d="M137.806 90.2893H134.748C133.656 90.2893 132.771 91.1865 132.771 92.2933V95.3708C132.771 96.4775 133.656 97.3747 134.748 97.3747H137.806C138.898 97.3747 139.783 96.4775 139.783 95.3708V92.2933C139.783 91.1865 138.898 90.2893 137.806 90.2893Z" fill="#2C7A7B"/>
<path d="M137.806 75.5278H134.748C133.656 75.5278 132.771 76.425 132.771 77.5318V80.6093C132.771 81.7161 133.656 82.6133 134.748 82.6133H137.806C138.898 82.6133 139.783 81.7161 139.783 80.6093V77.5318C139.783 76.425 138.898 75.5278 137.806 75.5278Z" fill="#2C7A7B"/>
<path d="M137.806 134.573H134.748C133.656 134.573 132.771 135.47 132.771 136.577V139.654C132.771 140.761 133.656 141.658 134.748 141.658H137.806C138.898 141.658 139.783 140.761 139.783 139.654V136.577C139.783 135.47 138.898 134.573 137.806 134.573Z" fill="#2C7A7B"/>
<path d="M152.414 119.812H149.356C148.264 119.812 147.379 120.709 147.379 121.816V124.893C147.379 126 148.264 126.897 149.356 126.897H152.414C153.506 126.897 154.391 126 154.391 124.893V121.816C154.391 120.709 153.506 119.812 152.414 119.812Z" fill="#2C7A7B"/>
<path d="M152.414 105.051H149.356C148.264 105.051 147.379 105.948 147.379 107.054V110.132C147.379 111.239 148.264 112.136 149.356 112.136H152.414C153.506 112.136 154.391 111.239 154.391 110.132V107.054C154.391 105.948 153.506 105.051 152.414 105.051Z" fill="#2C7A7B"/>
<path d="M152.414 90.2893H149.356C148.264 90.2893 147.379 91.1865 147.379 92.2933V95.3708C147.379 96.4775 148.264 97.3747 149.356 97.3747H152.414C153.506 97.3747 154.391 96.4775 154.391 95.3708V92.2933C154.391 91.1865 153.506 90.2893 152.414 90.2893Z" fill="#2C7A7B"/>
<path d="M152.414 75.5278H149.356C148.264 75.5278 147.379 76.425 147.379 77.5318V80.6093C147.379 81.7161 148.264 82.6133 149.356 82.6133H152.414C153.506 82.6133 154.391 81.7161 154.391 80.6093V77.5318C154.391 76.425 153.506 75.5278 152.414 75.5278Z" fill="#2C7A7B"/>
<path d="M152.414 134.573H149.356C148.264 134.573 147.379 135.47 147.379 136.577V139.654C147.379 140.761 148.264 141.658 149.356 141.658H152.414C153.506 141.658 154.391 140.761 154.391 139.654V136.577C154.391 135.47 153.506 134.573 152.414 134.573Z" fill="#2C7A7B"/>
<path d="M167.024 119.812H163.965C162.873 119.812 161.988 120.709 161.988 121.816V124.893C161.988 126 162.873 126.897 163.965 126.897H167.024C168.115 126.897 169 126 169 124.893V121.816C169 120.709 168.115 119.812 167.024 119.812Z" fill="#2C7A7B"/>
<path d="M167.024 105.051H163.965C162.873 105.051 161.988 105.948 161.988 107.054V110.132C161.988 111.239 162.873 112.136 163.965 112.136H167.024C168.115 112.136 169 111.239 169 110.132V107.054C169 105.948 168.115 105.051 167.024 105.051Z" fill="#2C7A7B"/>
<path d="M167.024 90.2893H163.965C162.873 90.2893 161.988 91.1865 161.988 92.2933V95.3708C161.988 96.4775 162.873 97.3747 163.965 97.3747H167.024C168.115 97.3747 169 96.4775 169 95.3708V92.2933C169 91.1865 168.115 90.2893 167.024 90.2893Z" fill="#2C7A7B"/>
<path d="M167.024 75.5278H163.965C162.873 75.5278 161.988 76.425 161.988 77.5318V80.6093C161.988 81.7161 162.873 82.6133 163.965 82.6133H167.024C168.115 82.6133 169 81.7161 169 80.6093V77.5318C169 76.425 168.115 75.5278 167.024 75.5278Z" fill="#2C7A7B"/>
<path d="M167.024 134.573H163.965C162.873 134.573 161.988 135.47 161.988 136.577V139.654C161.988 140.761 162.873 141.658 163.965 141.658H167.024C168.115 141.658 169 140.761 169 139.654V136.577C169 135.47 168.115 134.573 167.024 134.573Z" fill="#2C7A7B"/>
</g>
</g>
<defs>
<clipPath id="clip0">
<rect width="169" height="142" fill="white"/>
</clipPath>
</defs>
</svg>
